<?xml version="1.0" encoding="UTF-8" standalone="no"?>
<!DOCTYPE svg PUBLIC "-//W3C//DTD SVG 1.1//EN" "http://www.w3.org/Graphics/SVG/1.1/DTD/svg11.dtd">
<svg xmlns="http://www.w3.org/2000/svg" version="1.1" viewBox="0 0 500 500">
<g stroke-width="2.00" fill="none" stroke-linecap="butt">
<path stroke="#ee8054" vector-effect="non-scaling-stroke" d="
  M 207.42 165.90
  Q 201.15 173.30 196.79 182.00"
/>
<path stroke="#d53d3e" vector-effect="non-scaling-stroke" d="
  M 196.79 182.00
  Q 195.74 181.20 195.46 179.89
  A 1.01 1.00 3.2 0 0 194.79 179.15
  L 194.08 178.92
  A 1.01 1.00 23.4 0 1 193.51 177.49
  Q 199.46 166.56 206.94 156.60
  A 0.20 0.20 0.0 0 0 206.94 156.36
  Q 206.83 156.20 206.65 156.41
  Q 194.03 172.36 184.14 190.12"
/>
<path stroke="#d94242" vector-effect="non-scaling-stroke" d="
  M 184.14 190.12
  Q 182.91 189.91 183.44 188.69
  Q 186.44 181.70 183.96 173.50"
/>
<path stroke="#e4764b" vector-effect="non-scaling-stroke" d="
  M 196.79 182.00
  C 184.00 205.58 176.08 231.55 175.46 258.50"
/>
<path stroke="#c83134" vector-effect="non-scaling-stroke" d="
  M 175.46 258.50
  Q 173.54 260.55 174.52 263.22
  Q 175.25 265.22 172.76 265.23
  L 170.18 265.25
  A 1.01 1.00 -81.9 0 0 169.22 265.98
  Q 167.33 272.85 166.88 278.67
  Q 166.66 281.48 165.29 283.25"
/>
<path stroke="#bc2526" vector-effect="non-scaling-stroke" d="
  M 165.29 283.25
  C 163.37 272.48 163.70 263.67 164.04 250.91
  C 164.06 250.38 164.49 249.63 164.05 249.28
  Q 163.60 248.91 163.52 249.49
  Q 159.92 274.58 167.98 298.56"
/>
<path stroke="#da3927" vector-effect="non-scaling-stroke" d="
  M 167.98 298.56
  Q 170.57 309.36 176.21 319.00"
/>
<path stroke="#c83134" vector-effect="non-scaling-stroke" d="
  M 176.21 319.00
  L 173.38 319.32
  A 1.00 1.00 0.0 0 0 172.77 319.62
  C 171.37 321.08 170.30 314.33 167.35 314.27
  A 1.01 0.98 69.5 0 1 166.63 313.93
  C 164.19 311.21 163.44 308.19 161.50 306.04"
/>
<path stroke="#e47240" vector-effect="non-scaling-stroke" d="
  M 161.50 306.04
  Q 152.39 283.81 151.46 259.79
  A 0.80 0.79 -89.6 0 0 150.71 259.02
  L 150.29 259.00"
/>
<path stroke="#cf3839" vector-effect="non-scaling-stroke" d="
  M 157.65 221.89
  L 159.58 225.26
  A 1.04 1.01 74.4 0 0 160.46 225.77
  Q 165.19 225.72 168.30 222.32
  Q 170.56 219.86 171.11 218.34
  Q 176.42 203.67 184.14 190.12"
/>
<path stroke="#fdb556" vector-effect="non-scaling-stroke" d="
  M 196.71 245.25
  Q 196.07 246.57 194.91 245.90
  C 193.60 245.14 192.01 244.46 191.41 243.05
  Q 190.68 241.35 190.47 238.44
  A 1.00 1.00 0.0 0 0 189.11 237.58
  L 188.75 237.73
  A 0.52 0.51 78.2 0 1 188.05 237.27
  C 187.94 234.59 186.13 238.32 184.79 236.50"
/>
<path stroke="#f79945" vector-effect="non-scaling-stroke" d="
  M 184.79 236.50
  C 185.36 222.51 190.02 206.27 194.15 193.64
  Q 194.29 193.19 193.94 193.41
  Q 193.79 193.50 193.71 193.69
  C 183.26 219.32 179.38 246.97 185.10 274.26"
/>
<path stroke="#fdb556" vector-effect="non-scaling-stroke" d="
  M 185.10 274.26
  Q 182.36 276.69 180.41 273.58
  Q 179.21 271.68 178.05 269.74
  A 0.51 0.49 -12.2 0 0 177.65 269.49
  C 176.80 269.44 177.76 271.64 176.04 272.00"
/>
<path stroke="#e1744a" vector-effect="non-scaling-stroke" d="
  M 176.04 272.00
  Q 175.23 265.28 175.46 258.50"
/>
<path stroke="#d73626" vector-effect="non-scaling-stroke" d="
  M 252.75 361.79
  Q 251.59 363.29 249.08 362.85
  C 217.31 357.29 189.77 342.96 174.96 313.50"
/>
<path stroke="#866230" vector-effect="non-scaling-stroke" d="
  M 297.46 367.75
  C 261.23 381.02 221.45 378.05 190.29 354.25"
/>
<path stroke="#9d6d2f" stroke-opacity="0.808" vector-effect="non-scaling-stroke" d="
  M 190.29 354.25
  L 183.25 348.46"
/>
<path stroke="#866230" vector-effect="non-scaling-stroke" d="
  M 183.25 348.46
  Q 161.43 327.16 154.25 298.25
  Q 152.50 291.20 151.75 289.01"
/>
<path stroke="#e16f3f" vector-effect="non-scaling-stroke" d="
  M 161.50 306.04
  C 179.90 350.19 224.53 372.77 271.31 366.23
  Q 279.33 365.11 290.44 362.20
  Q 290.83 362.09 291.11 361.94
  Q 292.60 361.14 290.92 361.33
  L 274.52 363.14"
/>
<path stroke="#f37732" vector-effect="non-scaling-stroke" d="
  M 274.52 363.14
  Q 263.58 363.04 252.75 361.79"
/>
<path stroke="#e16f3f" vector-effect="non-scaling-stroke" d="
  M 252.75 361.79
  C 207.20 355.27 178.10 316.93 176.04 272.00"
/>
<path stroke="#b92325" vector-effect="non-scaling-stroke" d="
  M 165.29 283.25
  C 166.88 295.06 170.75 303.40 174.96 313.50"
/>
<path stroke="#cb2b18" vector-effect="non-scaling-stroke" d="
  M 174.96 313.50
  Q 170.97 306.33 167.98 298.56"
/>
<path stroke="#d73626" vector-effect="non-scaling-stroke" d="
  M 274.52 363.14
  Q 269.11 366.07 263.12 365.25
  Q 257.41 364.47 257.33 364.47
  C 223.71 361.96 194.84 348.10 176.21 319.00"
/>
<path stroke="#f7953a" vector-effect="non-scaling-stroke" d="
  M 184.79 236.50
  Q 182.68 253.21 185.79 269.74
  C 194.33 315.10 224.27 352.26 271.72 359.81
  Q 277.49 360.73 288.36 359.89
  Q 290.73 359.71 288.50 360.53
  Q 287.91 360.74 287.43 360.73
  C 281.49 360.59 275.33 361.53 269.88 360.78
  C 224.84 354.65 194.33 316.39 185.10 274.26"
/>
<path stroke="#090c0d" stroke-opacity="0.808" vector-effect="non-scaling-stroke" d="
  M 183.25 348.46
  C 181.17 348.66 182.98 349.61 183.28 350.12
  Q 185.24 353.37 188.14 355.69
  C 189.23 356.55 191.78 356.82 190.29 354.25"
/>
<path stroke="#0b0e0f" stroke-opacity="0.710" vector-effect="non-scaling-stroke" d="
  M 306.96 368.25
  Q 311.25 370.82 314.28 370.98
  Q 316.46 371.10 316.47 373.29"
/>
<path stroke="#fec37b" vector-effect="non-scaling-stroke" d="
  M 305.79 199.75
  L 306.82 202.28
  A 0.99 0.98 59.4 0 1 306.53 203.42
  Q 301.35 207.72 294.60 206.05
  Q 294.41 206.01 294.22 206.04
  L 290.89 206.50
  A 1.03 0.98 -72.0 0 0 290.28 206.83
  Q 289.45 207.77 288.25 208.04"
/>
<path stroke="#fec37b" vector-effect="non-scaling-stroke" d="
  M 260.78 205.06
  L 248.86 204.99
  A 0.54 0.53 19.0 0 0 248.44 205.19
  Q 248.26 205.44 248.00 205.46"
/>
<path stroke="#fdbc69" vector-effect="non-scaling-stroke" d="
  M 260.77 226.16
  Q 255.89 227.39 251.00 228.39
  C 248.46 228.91 246.10 230.24 243.43 230.80
  A 1.01 1.00 -1.2 0 1 242.23 229.66
  Q 242.52 227.85 241.79 226.25"
/>
<path stroke="#fdbc69" vector-effect="non-scaling-stroke" d="
  M 317.07 220.24
  Q 316.59 220.81 316.46 221.49
  A 1.01 1.00 16.9 0 1 315.08 222.22
  Q 313.64 221.60 312.26 222.27
  Q 307.14 224.77 301.44 225.34
  A 1.00 1.00 0.0 0 0 300.57 226.58
  Q 301.37 229.76 300.29 228.00"
/>
<path stroke="#fdb556" vector-effect="non-scaling-stroke" d="
  M 260.71 265.75
  Q 260.38 266.02 260.34 266.49
  A 0.80 0.79 5.3 0 1 259.46 267.21
  Q 255.89 266.85 252.65 268.23
  Q 251.47 268.73 250.00 270.52
  Q 247.87 273.11 244.41 273.95
  A 0.99 0.98 -88.4 0 0 243.69 274.64
  Q 243.48 275.36 242.84 275.68
  A 1.01 0.99 78.2 0 0 242.30 276.52
  L 241.88 284.26"
/>
<path stroke="#fdb556" vector-effect="non-scaling-stroke" d="
  M 295.46 265.50
  Q 287.85 265.14 281.40 269.37
  A 1.01 0.98 79.3 0 0 280.97 270.02
  C 280.16 274.31 275.05 267.66 273.61 266.60"
/>
<path stroke="#f7953a" vector-effect="non-scaling-stroke" d="
  M 295.31 360.31
  Q 307.54 356.47 294.22 359.42
  Q 292.30 359.84 294.18 360.41
  Q 294.60 360.54 295.31 360.31"
/>
</g>
<path fill="currentColor" d="
  M 207.42 165.90
  Q 201.15 173.30 196.79 182.00
  Q 195.74 181.20 195.46 179.89
  A 1.01 1.00 3.2 0 0 194.79 179.15
  L 194.08 178.92
  A 1.01 1.00 23.4 0 1 193.51 177.49
  Q 199.46 166.56 206.94 156.60
  A 0.20 0.20 0.0 0 0 206.94 156.36
  Q 206.83 156.20 206.65 156.41
  Q 194.03 172.36 184.14 190.12
  Q 182.91 189.91 183.44 188.69
  Q 186.44 181.70 183.96 173.50
  C 202.54 149.25 226.38 129.38 252.12 111.93
  Q 253.23 111.18 252.41 112.23
  Q 252.33 112.33 252.19 112.44
  C 247.41 116.53 241.95 120.79 237.81 124.75
  Q 219.11 142.66 207.42 165.90
  Z"
/>
<path fill="currentColor" d="
  M 196.79 182.00
  C 184.00 205.58 176.08 231.55 175.46 258.50
  Q 173.54 260.55 174.52 263.22
  Q 175.25 265.22 172.76 265.23
  L 170.18 265.25
  A 1.01 1.00 -81.9 0 0 169.22 265.98
  Q 167.33 272.85 166.88 278.67
  Q 166.66 281.48 165.29 283.25
  C 163.37 272.48 163.70 263.67 164.04 250.91
  C 164.06 250.38 164.49 249.63 164.05 249.28
  Q 163.60 248.91 163.52 249.49
  Q 159.92 274.58 167.98 298.56
  Q 170.57 309.36 176.21 319.00
  L 173.38 319.32
  A 1.00 1.00 0.0 0 0 172.77 319.62
  C 171.37 321.08 170.30 314.33 167.35 314.27
  A 1.01 0.98 69.5 0 1 166.63 313.93
  C 164.19 311.21 163.44 308.19 161.50 306.04
  Q 152.39 283.81 151.46 259.79
  A 0.80 0.79 -89.6 0 0 150.71 259.02
  L 150.29 259.00
  Q 151.68 240.03 157.65 221.89
  L 159.58 225.26
  A 1.04 1.01 74.4 0 0 160.46 225.77
  Q 165.19 225.72 168.30 222.32
  Q 170.56 219.86 171.11 218.34
  Q 176.42 203.67 184.14 190.12
  Q 194.03 172.36 206.65 156.41
  Q 206.83 156.20 206.94 156.36
  A 0.20 0.20 0.0 0 1 206.94 156.60
  Q 199.46 166.56 193.51 177.49
  A 1.01 1.00 23.4 0 0 194.08 178.92
  L 194.79 179.15
  A 1.01 1.00 3.2 0 1 195.46 179.89
  Q 195.74 181.20 196.79 182.00
  Z"
/>
<path fill="currentColor" d="
  M 207.42 165.90
  C 196.76 191.19 193.26 217.49 196.71 245.25
  Q 196.07 246.57 194.91 245.90
  C 193.60 245.14 192.01 244.46 191.41 243.05
  Q 190.68 241.35 190.47 238.44
  A 1.00 1.00 0.0 0 0 189.11 237.58
  L 188.75 237.73
  A 0.52 0.51 78.2 0 1 188.05 237.27
  C 187.94 234.59 186.13 238.32 184.79 236.50
  C 185.36 222.51 190.02 206.27 194.15 193.64
  Q 194.29 193.19 193.94 193.41
  Q 193.79 193.50 193.71 193.69
  C 183.26 219.32 179.38 246.97 185.10 274.26
  Q 182.36 276.69 180.41 273.58
  Q 179.21 271.68 178.05 269.74
  A 0.51 0.49 -12.2 0 0 177.65 269.49
  C 176.80 269.44 177.76 271.64 176.04 272.00
  Q 175.23 265.28 175.46 258.50
  C 176.08 231.55 184.00 205.58 196.79 182.00
  Q 201.15 173.30 207.42 165.90
  Z"
/>
<path fill="currentColor" d="
  M 183.96 173.50
  Q 186.44 181.70 183.44 188.69
  Q 182.91 189.91 184.14 190.12
  Q 176.42 203.67 171.11 218.34
  Q 170.56 219.86 168.30 222.32
  Q 165.19 225.72 160.46 225.77
  A 1.04 1.01 74.4 0 1 159.58 225.26
  L 157.65 221.89
  Q 166.60 195.46 183.96 173.50
  Z"
/>
<path fill="currentColor" d="
  M 305.79 199.75
  L 306.82 202.28
  A 0.99 0.98 59.4 0 1 306.53 203.42
  Q 301.35 207.72 294.60 206.05
  Q 294.41 206.01 294.22 206.04
  L 290.89 206.50
  A 1.03 0.98 -72.0 0 0 290.28 206.83
  Q 289.45 207.77 288.25 208.04
  C 280.20 203.66 272.38 204.92 260.78 205.06
  L 248.86 204.99
  A 0.54 0.53 19.0 0 0 248.44 205.19
  Q 248.26 205.44 248.00 205.46
  L 248.00 205.21
  A 0.22 0.21 88.6 0 0 247.79 205.00
  L 218.02 205.00
  A 1.00 1.00 0.0 0 1 217.05 203.77
  L 220.16 190.54
  A 1.01 1.00 6.2 0 1 221.13 189.77
  Q 244.49 189.69 267.81 189.78
  C 284.86 189.84 294.42 189.52 305.79 199.75
  Z"
/>
<path fill="currentColor" d="
  M 184.79 236.50
  Q 182.68 253.21 185.79 269.74
  C 194.33 315.10 224.27 352.26 271.72 359.81
  Q 277.49 360.73 288.36 359.89
  Q 290.73 359.71 288.50 360.53
  Q 287.91 360.74 287.43 360.73
  C 281.49 360.59 275.33 361.53 269.88 360.78
  C 224.84 354.65 194.33 316.39 185.10 274.26
  C 179.38 246.97 183.26 219.32 193.71 193.69
  Q 193.79 193.50 193.94 193.41
  Q 194.29 193.19 194.15 193.64
  C 190.02 206.27 185.36 222.51 184.79 236.50
  Z"
/>
<path fill="currentColor" d="
  M 305.79 199.75
  Q 314.80 208.04 317.07 220.24
  Q 316.59 220.81 316.46 221.49
  A 1.01 1.00 16.9 0 1 315.08 222.22
  Q 313.64 221.60 312.26 222.27
  Q 307.14 224.77 301.44 225.34
  A 1.00 1.00 0.0 0 0 300.57 226.58
  Q 301.37 229.76 300.29 228.00
  Q 299.49 214.76 288.25 208.04
  Q 289.45 207.77 290.28 206.83
  A 1.03 0.98 -72.0 0 1 290.89 206.50
  L 294.22 206.04
  Q 294.41 206.01 294.60 206.05
  Q 301.35 207.72 306.53 203.42
  A 0.99 0.98 59.4 0 0 306.82 202.28
  L 305.79 199.75
  Z"
/>
<path fill="currentColor" d="
  M 260.78 205.06
  L 260.77 226.16
  Q 255.89 227.39 251.00 228.39
  C 248.46 228.91 246.10 230.24 243.43 230.80
  A 1.01 1.00 -1.2 0 1 242.23 229.66
  Q 242.52 227.85 241.79 226.25
  C 241.74 222.32 241.01 217.34 242.82 213.77
  Q 245.04 209.39 248.00 205.46
  Q 248.26 205.44 248.44 205.19
  A 0.54 0.53 19.0 0 1 248.86 204.99
  L 260.78 205.06
  Z"
/>
<path fill="currentColor" d="
  M 317.07 220.24
  C 320.21 241.17 309.72 252.08 295.46 265.50
  Q 287.85 265.14 281.40 269.37
  A 1.01 0.98 79.3 0 0 280.97 270.02
  C 280.16 274.31 275.05 267.66 273.61 266.60
  C 286.90 257.25 300.33 245.79 300.29 228.00
  Q 301.37 229.76 300.57 226.58
  A 1.00 1.00 0.0 0 1 301.44 225.34
  Q 307.14 224.77 312.26 222.27
  Q 313.64 221.60 315.08 222.22
  A 1.01 1.00 16.9 0 0 316.46 221.49
  Q 316.59 220.81 317.07 220.24
  Z"
/>
<path fill="currentColor" d="
  M 260.77 226.16
  L 260.71 265.75
  Q 260.38 266.02 260.34 266.49
  A 0.80 0.79 5.3 0 1 259.46 267.21
  Q 255.89 266.85 252.65 268.23
  Q 251.47 268.73 250.00 270.52
  Q 247.87 273.11 244.41 273.95
  A 0.99 0.98 -88.4 0 0 243.69 274.64
  Q 243.48 275.36 242.84 275.68
  A 1.01 0.99 78.2 0 0 242.30 276.52
  L 241.88 284.26
  L 241.79 226.25
  Q 242.52 227.85 242.23 229.66
  A 1.01 1.00 -1.2 0 0 243.43 230.80
  C 246.10 230.24 248.46 228.91 251.00 228.39
  Q 255.89 227.39 260.77 226.16
  Z"
/>
<path fill="currentColor" d="
  M 196.71 245.25
  Q 200.07 278.12 217.98 305.23
  C 244.73 345.71 294.39 360.20 338.56 339.34
  Q 342.33 337.56 345.65 335.09
  A 0.27 0.26 49.5 0 1 345.99 335.12
  L 346.19 335.31
  A 0.24 0.10 -45.0 0 1 346.08 335.56
  Q 324.66 356.01 297.46 367.75
  C 261.23 381.02 221.45 378.05 190.29 354.25
  L 183.25 348.46
  Q 161.43 327.16 154.25 298.25
  Q 152.50 291.20 151.75 289.01
  Q 150.22 274.06 150.29 259.00
  L 150.71 259.02
  A 0.80 0.79 -89.6 0 1 151.46 259.79
  Q 152.39 283.81 161.50 306.04
  C 179.90 350.19 224.53 372.77 271.31 366.23
  Q 279.33 365.11 290.44 362.20
  Q 290.83 362.09 291.11 361.94
  Q 292.60 361.14 290.92 361.33
  L 274.52 363.14
  Q 263.58 363.04 252.75 361.79
  C 207.20 355.27 178.10 316.93 176.04 272.00
  C 177.76 271.64 176.80 269.44 177.65 269.49
  A 0.51 0.49 -12.2 0 1 178.05 269.74
  Q 179.21 271.68 180.41 273.58
  Q 182.36 276.69 185.10 274.26
  C 194.33 316.39 224.84 354.65 269.88 360.78
  C 275.33 361.53 281.49 360.59 287.43 360.73
  Q 287.91 360.74 288.50 360.53
  Q 290.73 359.71 288.36 359.89
  Q 277.49 360.73 271.72 359.81
  C 224.27 352.26 194.33 315.10 185.79 269.74
  Q 182.68 253.21 184.79 236.50
  C 186.13 238.32 187.94 234.59 188.05 237.27
  A 0.52 0.51 78.2 0 0 188.75 237.73
  L 189.11 237.58
  A 1.00 1.00 0.0 0 1 190.47 238.44
  Q 190.68 241.35 191.41 243.05
  C 192.01 244.46 193.60 245.14 194.91 245.90
  Q 196.07 246.57 196.71 245.25
  Z
  M 295.31 360.31
  Q 307.54 356.47 294.22 359.42
  Q 292.30 359.84 294.18 360.41
  Q 294.60 360.54 295.31 360.31
  Z"
/>
<path fill="currentColor" d="
  M 165.29 283.25
  C 166.88 295.06 170.75 303.40 174.96 313.50
  Q 170.97 306.33 167.98 298.56
  Q 159.92 274.58 163.52 249.49
  Q 163.60 248.91 164.05 249.28
  C 164.49 249.63 164.06 250.38 164.04 250.91
  C 163.70 263.67 163.37 272.48 165.29 283.25
  Z"
/>
<path fill="currentColor" fill-opacity="0.612" d="
  M 308.27 268.06
  A 1.01 1.01 0.0 0 1 307.01 268.15
  C 304.47 266.38 312.80 258.41 314.10 256.48
  A 1.01 1.00 -72.8 0 1 314.93 256.04
  C 320.36 256.04 309.51 266.90 308.27 268.06
  Z"
/>
<path fill="currentColor" d="
  M 175.46 258.50
  Q 175.23 265.28 176.04 272.00
  C 178.10 316.93 207.20 355.27 252.75 361.79
  Q 251.59 363.29 249.08 362.85
  C 217.31 357.29 189.77 342.96 174.96 313.50
  C 170.75 303.40 166.88 295.06 165.29 283.25
  Q 166.66 281.48 166.88 278.67
  Q 167.33 272.85 169.22 265.98
  A 1.01 1.00 -81.9 0 1 170.18 265.25
  L 172.76 265.23
  Q 175.25 265.22 174.52 263.22
  Q 173.54 260.55 175.46 258.50
  Z"
/>
<path fill="currentColor" d="
  M 295.46 265.50
  C 306.20 279.21 312.04 289.66 322.69 308.04
  C 329.11 319.10 337.62 329.13 351.48 329.39
  Q 353.01 329.42 351.60 329.86
  Q 351.43 329.91 351.25 329.93
  C 320.05 333.20 302.02 303.05 286.34 281.19
  C 282.62 276.00 277.94 271.51 273.61 266.60
  C 275.05 267.66 280.16 274.31 280.97 270.02
  A 1.01 0.98 79.3 0 1 281.40 269.37
  Q 287.85 265.14 295.46 265.50
  Z"
/>
<path fill="currentColor" d="
  M 260.71 265.75
  Q 260.69 304.02 261.09 312.69
  Q 261.33 317.72 264.32 325.12
  Q 265.22 327.34 263.17 326.11
  Q 250.16 318.28 243.74 304.58
  C 241.07 298.89 241.83 290.47 241.88 284.26
  L 242.30 276.52
  A 1.01 0.99 78.2 0 1 242.84 275.68
  Q 243.48 275.36 243.69 274.64
  A 0.99 0.98 -88.4 0 1 244.41 273.95
  Q 247.87 273.11 250.00 270.52
  Q 251.47 268.73 252.65 268.23
  Q 255.89 266.85 259.46 267.21
  A 0.80 0.79 5.3 0 0 260.34 266.49
  Q 260.38 266.02 260.71 265.75
  Z"
/>
<path fill="currentColor" d="
  M 151.75 289.01
  Q 152.50 291.20 154.25 298.25
  Q 161.43 327.16 183.25 348.46
  C 181.17 348.66 182.98 349.61 183.28 350.12
  Q 185.24 353.37 188.14 355.69
  C 189.23 356.55 191.78 356.82 190.29 354.25
  C 221.45 378.05 261.23 381.02 297.46 367.75
  Q 296.96 368.30 297.46 368.67
  A 0.62 0.62 0.0 0 0 298.16 368.71
  Q 299.56 367.89 300.86 368.78
  A 1.01 0.99 58.1 0 0 301.56 368.95
  L 306.96 368.25
  Q 311.25 370.82 314.28 370.98
  Q 316.46 371.10 316.47 373.29
  Q 274.53 396.71 228.00 386.00
  C 195.63 378.55 167.81 355.06 156.99 323.22
  Q 151.75 307.79 151.75 289.01
  Z"
/>
<path fill="currentColor" d="
  M 167.98 298.56
  Q 170.97 306.33 174.96 313.50
  C 189.77 342.96 217.31 357.29 249.08 362.85
  Q 251.59 363.29 252.75 361.79
  Q 263.58 363.04 274.52 363.14
  Q 269.11 366.07 263.12 365.25
  Q 257.41 364.47 257.33 364.47
  C 223.71 361.96 194.84 348.10 176.21 319.00
  Q 170.57 309.36 167.98 298.56
  Z"
/>
<path fill="#c42e33" d="
  M 161.50 306.04
  C 163.44 308.19 164.19 311.21 166.63 313.93
  A 1.01 0.98 69.5 0 0 167.35 314.27
  C 170.30 314.33 171.37 321.08 172.77 319.62
  A 1.00 1.00 0.0 0 1 173.38 319.32
  L 176.21 319.00
  C 194.84 348.10 223.71 361.96 257.33 364.47
  Q 257.41 364.47 263.12 365.25
  Q 269.11 366.07 274.52 363.14
  L 290.92 361.33
  Q 292.60 361.14 291.11 361.94
  Q 290.83 362.09 290.44 362.20
  Q 279.33 365.11 271.31 366.23
  C 224.53 372.77 179.90 350.19 161.50 306.04
  Z"
/>
<path fill="#000001" fill-opacity="0.612" d="
  M 183.25 348.46
  L 190.29 354.25
  C 191.78 356.82 189.23 356.55 188.14 355.69
  Q 185.24 353.37 183.28 350.12
  C 182.98 349.61 181.17 348.66 183.25 348.46
  Z"
/>
<path fill="currentColor" d="
  M 295.31 360.31
  Q 294.60 360.54 294.18 360.41
  Q 292.30 359.84 294.22 359.42
  Q 307.54 356.47 295.31 360.31
  Z"
/>
<path fill="currentColor" fill-opacity="0.416" d="
  M 316.47 373.29
  Q 316.46 371.10 314.28 370.98
  Q 311.25 370.82 306.96 368.25
  C 310.82 365.63 315.24 371.54 320.57 368.56
  Q 325.97 365.54 331.15 362.21
  Q 333.04 360.99 333.20 360.96
  Q 335.68 360.43 333.80 362.14
  Q 331.15 364.53 328.94 366.00
  C 324.08 369.22 320.99 371.57 316.47 373.29
  Z"
/>
</svg>
