<?xml version="1.0" encoding="UTF-8" standalone="no"?>
<!DOCTYPE svg PUBLIC "-//W3C//DTD SVG 1.1//EN" "http://www.w3.org/Graphics/SVG/1.1/DTD/svg11.dtd">
<svg xmlns="http://www.w3.org/2000/svg" version="1.1" viewBox="0 0 500 500">
<g stroke-width="2.00" fill="none" stroke-linecap="butt">
<path stroke="#96b2bc" vector-effect="non-scaling-stroke" d="
  M 441.79 227.75
  C 441.69 232.97 440.66 237.61 441.08 242.75
  Q 441.65 249.85 441.89 257.03"
/>
<path stroke="#93a3a9" vector-effect="non-scaling-stroke" d="
  M 441.89 257.03
  Q 441.73 263.84 440.65 270.53
  C 439.39 278.33 438.67 286.45 436.73 294.49
  C 427.78 331.40 409.90 362.64 383.87 389.88
  A 0.42 0.41 52.4 0 0 383.81 390.37
  L 383.94 390.60
  A 0.33 0.33 0.0 0 0 384.44 390.69
  Q 394.49 381.98 403.70 372.38
  A 0.39 0.36 18.8 0 1 403.99 372.25
  L 404.31 372.25
  Q 404.70 372.25 404.48 372.57
  C 389.63 395.03 369.07 412.68 345.89 426.10
  C 343.94 427.24 341.48 427.07 341.37 430.34
  A 1.01 0.99 75.2 0 1 340.91 431.15
  Q 334.29 435.38 325.54 439.26
  Q 325.18 439.42 325.14 439.64
  Q 325.06 440.02 325.42 439.87
  Q 377.63 418.34 411.36 373.05
  A 1.00 1.00 0.0 0 1 412.16 372.65
  L 413.28 372.66
  Q 415.26 372.66 414.08 374.25
  Q 392.79 402.85 363.53 423.25
  Q 326.82 448.84 282.50 455.81
  Q 267.54 458.17 263.50 458.44
  Q 257.17 458.86 237.07 458.53
  Q 230.63 458.42 226.19 457.56
  Q 222.86 456.91 219.86 456.80
  Q 214.40 456.60 219.80 457.45
  Q 223.38 458.02 228.49 458.49
  C 250.45 460.51 271.72 459.67 292.70 455.07
  C 294.02 454.78 299.18 453.45 300.57 454.02
  Q 301.44 454.38 300.53 454.63
  C 288.31 458.12 276.33 460.43 263.50 461.20
  C 261.61 461.31 249.10 462.06 249.86 463.10
  A 0.43 0.43 0.0 0 0 250.18 463.27
  Q 268.14 463.54 285.83 460.36
  C 375.17 444.29 444.51 373.44 458.00 283.25
  Q 465.00 236.47 452.72 190.01
  C 436.89 130.12 393.41 82.53 338.46 55.66
  Q 322.25 47.73 318.18 46.07
  Q 298.63 38.06 277.65 35.40
  C 275.84 35.18 274.54 35.80 273.01 36.59
  A 0.99 0.96 32.8 0 1 272.45 36.70
  Q 196.61 29.16 134.73 70.29
  C 92.30 98.49 62.17 142.44 48.02 191.35
  C 48.00 191.41 47.82 192.84 48.24 191.89
  Q 52.24 182.84 56.07 173.71
  C 56.69 172.25 57.23 173.29 56.85 174.29
  Q 42.87 211.22 43.81 250.80
  C 43.85 252.41 45.13 251.78 45.16 250.61
  C 45.99 223.35 50.90 193.28 62.30 168.30
  Q 63.09 166.57 62.92 168.46
  Q 62.90 168.72 62.78 169.02
  C 53.19 194.00 46.71 223.12 48.17 250.18
  Q 48.49 256.08 48.69 250.50
  Q 49.26 234.31 51.65 218.27
  C 64.48 132.15 128.70 65.12 214.87 49.55
  Q 229.14 46.97 232.74 46.82
  Q 256.39 45.87 274.23 48.55
  Q 332.62 57.35 377.52 98.00
  C 382.80 102.78 388.42 107.26 392.88 112.59
  C 411.31 134.58 426.61 160.35 434.26 188.00
  Q 436.55 196.29 438.87 207.12
  C 439.52 210.15 438.24 212.48 439.88 215.71
  A 1.01 1.01 0.0 0 1 439.97 216.34
  C 439.11 221.18 441.19 223.41 441.79 227.75"
/>
<path stroke="#295666" vector-effect="non-scaling-stroke" d="
  M 441.89 257.03
  C 444.33 246.40 443.39 238.64 442.71 229.02
  A 0.95 0.94 20.8 0 0 442.42 228.39
  L 441.79 227.75"
/>
<path stroke="#8ca4b4" vector-effect="non-scaling-stroke" d="
  M 303.8246 167.7791
  A 12.43 12.43 0.0 0 0 291.4380 155.3057
  L 208.1185 155.0149
  A 12.43 12.43 0.0 0 0 195.6452 167.4014
  L 195.3554 250.4209
  A 12.43 12.43 0.0 0 0 207.7420 262.8943
  L 291.0615 263.1851
  A 12.43 12.43 0.0 0 0 303.5348 250.7986
  L 303.8246 167.7791"
/>
<path stroke="#93a3a9" vector-effect="non-scaling-stroke" d="
  M 323.23 337.85
  A 0.99 0.99 0.0 0 0 323.93 338.99
  L 329.54 340.59
  A 0.99 0.99 0.0 0 0 330.79 339.79
  L 332.13 331.25
  A 0.99 0.99 0.0 0 1 333.02 330.41
  L 340.85 329.74
  A 0.99 0.99 0.0 0 1 341.90 330.53
  L 343.73 339.67
  A 0.99 0.99 0.0 0 0 344.79 340.46
  L 352.01 339.77
  A 0.99 0.99 0.0 0 0 352.88 338.54
  L 340.88 290.95
  A 0.99 0.99 0.0 0 0 339.81 290.21
  L 332.70 291.00
  A 0.99 0.99 0.0 0 0 331.84 291.80
  L 323.23 337.85"
/>
<path stroke="#93a3a9" vector-effect="non-scaling-stroke" d="
  M 124.30 318.82
  C 125.63 318.14 125.77 319.22 126.17 320.10
  Q 129.96 328.48 133.77 336.86
  A 1.00 0.99 -28.3 0 0 135.22 337.29
  L 140.86 333.66
  A 1.00 0.98 60.8 0 0 141.21 332.39
  L 133.49 316.51
  A 1.00 0.99 53.0 0 1 133.64 315.40
  C 138.96 309.50 141.04 299.45 134.16 293.92
  C 128.96 289.73 122.81 290.64 116.55 291.38
  A 1.01 1.01 0.0 0 0 115.67 292.36
  L 114.78 337.15
  A 0.99 0.99 0.0 0 0 115.70 338.16
  L 122.67 338.70
  A 1.00 0.99 2.4 0 0 123.75 337.71
  L 123.76 319.71
  A 1.00 1.00 0.0 0 1 124.30 318.82"
/>
<path stroke="#93a3a9" vector-effect="non-scaling-stroke" d="
  M 150.12 309.97
  C 155.57 313.37 168.20 319.03 162.57 327.43
  C 161.09 329.62 157.48 330.30 155.29 329.47
  Q 153.87 328.94 148.92 325.29
  A 1.00 1.00 0.0 0 0 147.40 325.73
  L 145.09 331.52
  A 0.99 0.99 0.0 0 0 145.54 332.77
  C 148.96 334.62 156.11 339.20 159.93 338.67
  Q 170.32 337.21 172.84 326.81
  C 174.05 321.83 172.68 316.48 168.07 313.74
  C 162.53 310.45 153.96 305.48 160.41 299.49
  A 1.03 0.97 18.8 0 1 160.96 299.24
  L 166.88 298.46
  A 1.02 1.01 4.5 0 0 167.71 297.76
  L 168.48 295.28
  A 1.01 0.99 -64.9 0 0 168.08 294.15
  C 156.35 286.30 144.80 297.63 149.80 309.60
  A 0.86 0.80 6.1 0 0 150.12 309.97"
/>
<path stroke="#93a3a9" vector-effect="non-scaling-stroke" d="
  M 299.05 338.77
  A 1.43 1.43 0.0 0 0 300.45 340.22
  L 317.52 340.56
  A 1.43 1.43 0.0 0 0 318.98 339.21
  L 319.20 335.07
  A 1.43 1.43 0.0 0 0 317.87 333.57
  L 307.11 332.85
  A 1.43 1.43 0.0 0 1 305.77 331.34
  L 307.91 294.56
  A 1.43 1.43 0.0 0 0 306.39 293.05
  L 300.99 293.40
  A 1.43 1.43 0.0 0 0 299.65 294.80
  L 299.05 338.77"
/>
<path stroke="#93a3a9" vector-effect="non-scaling-stroke" d="
  M 242.14 339.91
  A 0.64 0.64 0.0 0 0 242.76 340.54
  L 261.67 341.04
  A 0.64 0.64 0.0 0 0 262.32 340.46
  L 262.83 334.43
  A 0.64 0.64 0.0 0 0 262.16 333.74
  L 249.56 334.29
  A 0.64 0.64 0.0 0 1 248.90 333.60
  L 249.69 323.90
  A 0.64 0.64 0.0 0 1 250.37 323.32
  L 258.35 323.80
  A 0.64 0.64 0.0 0 0 259.03 323.12
  L 258.59 316.03
  A 0.64 0.64 0.0 0 0 257.90 315.43
  L 250.00 316.03
  A 0.64 0.64 0.0 0 1 249.31 315.40
  L 249.08 302.65
  A 0.64 0.64 0.0 0 1 249.72 302.00
  L 259.82 302.00
  A 0.64 0.64 0.0 0 0 260.46 301.37
  L 260.52 294.71
  A 0.64 0.64 0.0 0 0 259.80 294.07
  L 241.93 296.40
  A 0.64 0.64 0.0 0 0 241.37 297.04
  L 242.14 339.91"
/>
<path stroke="#93a3a9" vector-effect="non-scaling-stroke" d="
  M 284.03 314.79
  A 1.00 1.00 0.0 0 1 283.71 313.13
  Q 288.05 309.01 287.08 302.67
  C 285.55 292.60 275.41 294.29 267.84 296.13
  A 1.01 1.00 -8.2 0 0 267.08 297.14
  L 268.72 340.97
  A 1.01 1.00 6.3 0 0 269.47 341.90
  C 280.21 344.77 296.22 339.91 292.99 325.48
  Q 291.23 317.62 284.03 314.79"
/>
<path stroke="#93a3a9" vector-effect="non-scaling-stroke" d="
  M 375.29 314.78
  A 1.00 0.99 32.2 0 1 374.93 313.20
  Q 380.21 307.22 377.39 300.07
  C 374.45 292.61 364.45 294.65 358.71 296.02
  A 0.99 0.99 0.0 0 0 357.95 297.03
  L 359.74 340.94
  A 1.01 1.00 -83.7 0 0 360.48 341.87
  C 372.25 344.94 387.50 339.49 383.52 324.23
  Q 381.75 317.48 375.29 314.78"
/>
<path stroke="#93a3a9" vector-effect="non-scaling-stroke" d="
  M 224.29 323.80
  Q 224.22 323.68 224.19 323.51
  Q 222.74 317.33 221.78 309.79
  A 1.00 0.99 -6.9 0 0 220.67 308.93
  L 214.99 309.61
  A 1.02 1.00 -85.6 0 0 214.14 310.35
  Q 212.24 317.58 210.35 324.83
  C 209.97 326.32 209.22 324.86 209.21 324.37
  Q 208.99 310.89 208.99 297.09
  A 1.00 1.00 0.0 0 0 208.07 296.09
  L 200.89 295.52
  A 1.00 1.00 0.0 0 0 199.81 296.57
  L 202.12 340.72
  A 1.00 1.00 0.0 0 0 203.03 341.66
  L 210.37 342.35
  A 1.00 0.99 -78.0 0 0 211.41 341.67
  Q 212.64 337.94 216.49 325.25
  C 216.76 324.36 217.57 324.67 217.76 325.45
  Q 219.52 332.77 221.38 340.07
  A 1.01 0.99 -11.4 0 0 222.51 340.81
  L 229.85 339.62
  A 1.01 0.99 -0.5 0 0 230.68 338.79
  Q 233.78 318.93 236.71 299.74
  Q 237.25 296.13 234.50 296.69
  C 232.42 297.12 230.26 297.39 228.25 297.99
  A 0.99 0.98 84.4 0 0 227.55 298.85
  L 225.06 323.66
  Q 224.92 325.07 224.29 323.80"
/>
<path stroke="#808181" vector-effect="non-scaling-stroke" d="
  M 96.84 392.65
  C 124.48 422.81 163.24 446.93 203.33 455.24
  A 0.41 0.41 0.0 0 0 203.66 455.17
  Q 203.93 454.97 203.48 454.85
  Q 145.41 439.23 103.05 397.51
  C 85.88 380.59 73.74 361.95 61.77 340.49
  Q 61.33 339.70 61.27 340.82
  A 1.00 0.99 33.5 0 0 61.38 341.35
  Q 76.78 370.77 96.84 392.65"
/>
<path stroke="#91a7af" vector-effect="non-scaling-stroke" d="
  M 380.5413 391.1619
  A 4.64 0.65 -43.4 0 0 376.7234 393.8777
  A 4.64 0.65 -43.4 0 0 373.7987 397.5381
  A 4.64 0.65 -43.4 0 0 377.6166 394.8223
  A 4.64 0.65 -43.4 0 0 380.5413 391.1619"
/>
<path stroke="#808181" vector-effect="non-scaling-stroke" d="
  M 125.21 409.48
  C 133.71 416.04 141.48 421.33 150.99 426.75
  Q 158.63 431.10 161.69 433.06
  Q 162.17 433.37 162.63 434.28
  Q 163.49 436.01 164.10 434.18
  L 164.20 433.90
  A 1.01 1.00 -67.4 0 0 163.71 432.69
  Q 143.71 422.31 125.74 408.74
  Q 124.74 407.98 124.83 408.80
  A 1.02 1.01 -74.5 0 0 125.21 409.48"
/>
<path stroke="#939294" vector-effect="non-scaling-stroke" d="
  M 317.32 430.41
  C 316.67 431.98 322.70 430.64 317.85 430.09
  A 0.52 0.51 -75.5 0 0 317.32 430.41"
/>
<path stroke="#808181" vector-effect="non-scaling-stroke" d="
  M 165.74 436.99
  Q 168.01 437.65 166.86 435.62
  Q 166.25 434.54 165.38 435.26
  Q 163.92 436.46 165.74 436.99"
/>
<path stroke="#808181" vector-effect="non-scaling-stroke" d="
  M 168.49 436.31
  Q 166.48 437.76 168.96 437.76
  Q 169.67 437.76 170.22 437.38
  Q 172.20 436.02 169.80 435.92
  Q 169.07 435.90 168.49 436.31"
/>
<path stroke="#808181" vector-effect="non-scaling-stroke" d="
  M 182.6964 440.9837
  A 0.31 0.31 0.0 0 0 182.5069 440.5884
  L 172.6786 437.1273
  A 0.31 0.31 0.0 0 0 172.2832 437.3167
  L 172.1636 437.6563
  A 0.31 0.31 0.0 0 0 172.3531 438.0516
  L 182.1814 441.5127
  A 0.31 0.31 0.0 0 0 182.5768 441.3233
  L 182.6964 440.9837"
/>
<path stroke="#939294" vector-effect="non-scaling-stroke" d="
  M 285.35 453.60
  Q 304.31 450.45 320.78 443.27
  Q 321.13 443.12 321.39 442.88
  Q 322.53 441.81 321.06 442.33
  Q 313.89 444.85 306.68 447.24
  C 299.65 449.58 291.95 450.92 284.55 452.68
  Q 282.24 453.23 285.05 453.61
  Q 285.20 453.63 285.35 453.60"
/>
<path stroke="#808181" vector-effect="non-scaling-stroke" d="
  M 186.89 443.16
  C 188.64 443.90 204.74 449.39 205.24 448.08
  A 0.26 0.26 0.0 0 0 205.07 447.74
  L 187.51 442.43
  A 0.99 0.97 -47.8 0 0 186.82 442.47
  Q 186.06 442.81 186.89 443.16"
/>
<path stroke="#8c8c8b" vector-effect="non-scaling-stroke" d="
  M 211.4821 449.5039
  A 3.04 0.35 13.0 0 0 208.5987 448.4790
  A 3.04 0.35 13.0 0 0 205.5579 448.1361
  A 3.04 0.35 13.0 0 0 208.4413 449.1610
  A 3.04 0.35 13.0 0 0 211.4821 449.5039"
/>
<path stroke="#808181" vector-effect="non-scaling-stroke" d="
  M 219.6421 450.5555
  A 3.26 0.71 7.5 0 0 216.5027 449.4261
  A 3.26 0.71 7.5 0 0 213.1779 449.7045
  A 3.26 0.71 7.5 0 0 216.3173 450.8339
  A 3.26 0.71 7.5 0 0 219.6421 450.5555"
/>
<path stroke="#8c8c8b" vector-effect="non-scaling-stroke" d="
  M 278.09 455.03
  Q 278.90 455.13 279.69 454.84
  Q 281.64 454.13 279.58 453.85
  Q 277.38 453.55 275.17 453.84
  Q 258.74 456.01 241.23 454.89
  Q 241.11 454.88 240.98 454.90
  C 240.77 454.94 235.69 456.15 239.78 456.24
  Q 252.61 456.50 265.47 456.25
  C 269.80 456.17 273.54 454.50 278.09 455.03"
/>
<path stroke="#93a3a9" vector-effect="non-scaling-stroke" d="
  M 422.42 366.92
  Q 397.93 402.20 362.59 426.64
  C 362.02 427.03 360.95 428.73 362.74 427.58
  Q 399.35 404.04 423.07 367.56
  A 1.04 1.01 -35.4 0 0 423.21 366.79
  Q 423.04 366.03 422.42 366.92"
/>
<path stroke="#8ca4b4" vector-effect="non-scaling-stroke" d="
  M 300.78 162.94
  C 300.67 160.95 294.40 157.84 293.18 157.81
  Q 271.74 157.27 210.32 157.82
  C 199.50 157.92 195.67 164.73 198.47 174.77
  A 1.00 0.99 -7.6 0 0 199.43 175.50
  L 300.24 175.55
  A 1.00 1.00 0.0 0 0 301.24 174.52
  Q 301.11 169.03 300.78 162.94"
/>
<path stroke="#8ca4b4" vector-effect="non-scaling-stroke" d="
  M 299.99 178.12
  C 265.95 178.06 232.61 177.63 199.00 178.22
  A 1.00 0.99 89.7 0 0 198.02 179.22
  Q 197.96 212.47 198.03 245.72
  C 198.05 253.62 198.66 260.49 208.00 260.50
  Q 247.93 260.51 287.87 260.49
  C 295.23 260.48 300.94 259.39 300.96 250.93
  Q 301.04 214.48 300.99 179.12
  A 1.01 1.00 89.7 0 0 299.99 178.12"
/>
<path stroke="#8ca4b4" vector-effect="non-scaling-stroke" d="
  M 249.53 165.89
  A 4.64 4.64 0.0 0 0 244.89 161.25
  L 208.93 161.25
  A 4.64 4.64 0.0 0 0 204.29 165.89
  L 204.29 167.35
  A 4.64 4.64 0.0 0 0 208.93 171.99
  L 244.89 171.99
  A 4.64 4.64 0.0 0 0 249.53 167.35
  L 249.53 165.89"
/>
<path stroke="#91a7af" vector-effect="non-scaling-stroke" d="
  M 267.18 166.57
  A 5.23 5.23 0.0 0 0 261.95 161.34
  A 5.23 5.23 0.0 0 0 256.72 166.57
  A 5.23 5.23 0.0 0 0 261.95 171.80
  A 5.23 5.23 0.0 0 0 267.18 166.57"
/>
<path stroke="#91a7af" vector-effect="non-scaling-stroke" d="
  M 280.61 166.61
  A 5.24 5.24 0.0 0 0 275.37 161.37
  A 5.24 5.24 0.0 0 0 270.13 166.61
  A 5.24 5.24 0.0 0 0 275.37 171.85
  A 5.24 5.24 0.0 0 0 280.61 166.61"
/>
<path stroke="#91a7af" vector-effect="non-scaling-stroke" d="
  M 294.17 166.60
  A 5.22 5.22 0.0 0 0 288.95 161.38
  A 5.22 5.22 0.0 0 0 283.73 166.60
  A 5.22 5.22 0.0 0 0 288.95 171.82
  A 5.22 5.22 0.0 0 0 294.17 166.60"
/>
<path stroke="#8ca4b4" vector-effect="non-scaling-stroke" d="
  M 247.49 166.27
  A 2.52 2.52 0.0 0 0 244.97 163.75
  L 209.01 163.75
  A 2.52 2.52 0.0 0 0 206.49 166.27
  L 206.49 166.99
  A 2.52 2.52 0.0 0 0 209.01 169.51
  L 244.97 169.51
  A 2.52 2.52 0.0 0 0 247.49 166.99
  L 247.49 166.27"
/>
<path stroke="#91a7af" vector-effect="non-scaling-stroke" d="
  M 264.83 166.66
  A 2.88 2.88 0.0 0 0 261.95 163.78
  A 2.88 2.88 0.0 0 0 259.07 166.66
  A 2.88 2.88 0.0 0 0 261.95 169.54
  A 2.88 2.88 0.0 0 0 264.83 166.66"
/>
<path stroke="#91a7af" vector-effect="non-scaling-stroke" d="
  M 278.32 166.66
  A 2.90 2.90 0.0 0 0 275.42 163.76
  A 2.90 2.90 0.0 0 0 272.52 166.66
  A 2.90 2.90 0.0 0 0 275.42 169.56
  A 2.90 2.90 0.0 0 0 278.32 166.66"
/>
<path stroke="#91a7af" vector-effect="non-scaling-stroke" d="
  M 291.82 166.64
  A 2.83 2.83 0.0 0 0 288.99 163.81
  A 2.83 2.83 0.0 0 0 286.16 166.64
  A 2.83 2.83 0.0 0 0 288.99 169.47
  A 2.83 2.83 0.0 0 0 291.82 166.64"
/>
<path stroke="#93a3a9" vector-effect="non-scaling-stroke" d="
  M 240.40 237.28
  C 239.01 236.12 236.47 236.44 234.91 236.32
  Q 232.77 236.16 232.77 234.02
  Q 232.75 226.76 232.74 221.23
  Q 232.73 219.16 230.49 217.89
  A 1.00 1.00 0.0 0 1 230.20 216.39
  L 232.51 213.55
  A 1.03 1.01 -26.6 0 0 232.73 212.92
  L 232.75 198.69
  A 1.01 1.00 2.6 0 1 233.85 197.70
  C 235.06 197.82 245.45 197.35 239.41 193.54
  A 1.00 0.96 -30.2 0 0 238.79 193.39
  L 229.92 194.19
  A 1.00 0.99 -2.5 0 0 229.01 195.18
  L 229.00 211.20
  A 1.00 0.97 -25.5 0 1 228.76 211.84
  L 224.84 216.45
  A 1.00 1.00 0.0 0 0 224.85 217.76
  L 228.75 222.16
  A 1.03 1.02 24.9 0 1 229.00 222.83
  L 229.00 238.55
  A 1.00 1.00 0.0 0 0 229.85 239.54
  C 230.23 239.60 245.01 241.14 240.40 237.28"
/>
<path stroke="#8fa5ad" vector-effect="non-scaling-stroke" d="
  M 272.21 217.71
  L 270.00 220.23
  A 1.05 1.02 -25.8 0 0 269.76 220.89
  L 269.73 235.21
  A 1.00 1.00 0.0 0 1 268.76 236.21
  C 267.89 236.24 258.55 236.13 262.21 239.70
  A 1.04 0.99 66.7 0 0 262.89 239.99
  C 265.93 240.03 273.25 241.39 273.43 236.93
  Q 273.60 232.80 273.49 222.59
  A 1.00 0.96 64.6 0 1 273.71 221.94
  L 277.21 217.69
  A 1.00 0.99 -44.8 0 0 277.22 216.43
  L 273.75 212.16
  A 1.02 0.97 -65.7 0 1 273.53 211.53
  L 273.43 195.66
  A 1.00 0.99 8.8 0 0 272.73 194.71
  C 270.91 194.15 258.06 191.34 262.36 197.04
  A 0.99 0.98 72.5 0 0 263.10 197.43
  L 268.78 197.76
  A 1.00 1.00 0.0 0 1 269.72 198.76
  L 269.76 213.11
  A 1.00 0.97 25.5 0 0 270.00 213.75
  L 272.23 216.40
  A 1.01 1.00 -44.3 0 1 272.21 217.71"
/>
<path stroke="#93a3a9" vector-effect="non-scaling-stroke" d="
  M 333.96 321.81
  A 0.40 0.40 0.0 0 0 334.36 322.28
  L 339.59 322.21
  A 0.40 0.40 0.0 0 0 339.98 321.73
  L 337.17 308.18
  A 0.40 0.40 0.0 0 0 336.39 308.19
  L 333.96 321.81"
/>
<path stroke="#93a3a9" vector-effect="non-scaling-stroke" d="
  M 128.61 298.96
  L 124.78 299.13
  A 1.00 0.99 1.3 0 0 123.83 300.03
  L 123.22 306.62
  A 1.01 1.00 -84.0 0 0 124.09 307.70
  C 129.30 308.40 133.34 303.90 129.42 299.31
  A 1.02 1.01 -21.5 0 0 128.61 298.96"
/>
<path stroke="#93a3a9" vector-effect="non-scaling-stroke" d="
  M 276.07 300.45
  A 1.00 1.00 0.0 0 0 274.67 301.42
  L 275.17 309.85
  Q 275.29 311.91 276.83 310.54
  C 280.78 307.04 282.00 303.05 276.07 300.45"
/>
<path stroke="#93a3a9" vector-effect="non-scaling-stroke" d="
  M 277.90 333.54
  C 288.47 332.56 283.09 322.22 277.45 319.45
  A 1.00 1.00 0.0 0 0 276.01 320.41
  L 276.81 332.61
  A 1.00 0.99 85.3 0 0 277.90 333.54"
/>
<path stroke="#93a3a9" vector-effect="non-scaling-stroke" d="
  M 367.25 301.08
  A 1.00 1.00 0.0 0 0 365.86 302.06
  L 366.30 309.44
  Q 366.42 311.28 367.90 310.18
  C 372.03 307.11 372.74 303.43 367.25 301.08"
/>
<path stroke="#93a3a9" vector-effect="non-scaling-stroke" d="
  M 372.30 322.45
  C 370.78 320.76 369.32 318.89 367.23 320.36
  A 0.98 0.97 70.5 0 0 366.81 321.25
  L 367.73 333.45
  A 1.00 1.00 0.0 0 0 369.19 334.26
  Q 378.50 329.33 372.30 322.45"
/>
</g>
<path fill="#ffffff" d="
  M 0.00 0.00
  L 500.00 0.00
  L 500.00 500.00
  L 0.00 500.00
  L 0.00 0.00
  Z
  M 441.79 227.75
  C 441.69 232.97 440.66 237.61 441.08 242.75
  Q 441.65 249.85 441.89 257.03
  Q 441.73 263.84 440.65 270.53
  C 439.39 278.33 438.67 286.45 436.73 294.49
  C 427.78 331.40 409.90 362.64 383.87 389.88
  A 0.42 0.41 52.4 0 0 383.81 390.37
  L 383.94 390.60
  A 0.33 0.33 0.0 0 0 384.44 390.69
  Q 394.49 381.98 403.70 372.38
  A 0.39 0.36 18.8 0 1 403.99 372.25
  L 404.31 372.25
  Q 404.70 372.25 404.48 372.57
  C 389.63 395.03 369.07 412.68 345.89 426.10
  C 343.94 427.24 341.48 427.07 341.37 430.34
  A 1.01 0.99 75.2 0 1 340.91 431.15
  Q 334.29 435.38 325.54 439.26
  Q 325.18 439.42 325.14 439.64
  Q 325.06 440.02 325.42 439.87
  Q 377.63 418.34 411.36 373.05
  A 1.00 1.00 0.0 0 1 412.16 372.65
  L 413.28 372.66
  Q 415.26 372.66 414.08 374.25
  Q 392.79 402.85 363.53 423.25
  Q 326.82 448.84 282.50 455.81
  Q 267.54 458.17 263.50 458.44
  Q 257.17 458.86 237.07 458.53
  Q 230.63 458.42 226.19 457.56
  Q 222.86 456.91 219.86 456.80
  Q 214.40 456.60 219.80 457.45
  Q 223.38 458.02 228.49 458.49
  C 250.45 460.51 271.72 459.67 292.70 455.07
  C 294.02 454.78 299.18 453.45 300.57 454.02
  Q 301.44 454.38 300.53 454.63
  C 288.31 458.12 276.33 460.43 263.50 461.20
  C 261.61 461.31 249.10 462.06 249.86 463.10
  A 0.43 0.43 0.0 0 0 250.18 463.27
  Q 268.14 463.54 285.83 460.36
  C 375.17 444.29 444.51 373.44 458.00 283.25
  Q 465.00 236.47 452.72 190.01
  C 436.89 130.12 393.41 82.53 338.46 55.66
  Q 322.25 47.73 318.18 46.07
  Q 298.63 38.06 277.65 35.40
  C 275.84 35.18 274.54 35.80 273.01 36.59
  A 0.99 0.96 32.8 0 1 272.45 36.70
  Q 196.61 29.16 134.73 70.29
  C 92.30 98.49 62.17 142.44 48.02 191.35
  C 48.00 191.41 47.82 192.84 48.24 191.89
  Q 52.24 182.84 56.07 173.71
  C 56.69 172.25 57.23 173.29 56.85 174.29
  Q 42.87 211.22 43.81 250.80
  C 43.85 252.41 45.13 251.78 45.16 250.61
  C 45.99 223.35 50.90 193.28 62.30 168.30
  Q 63.09 166.57 62.92 168.46
  Q 62.90 168.72 62.78 169.02
  C 53.19 194.00 46.71 223.12 48.17 250.18
  Q 48.49 256.08 48.69 250.50
  Q 49.26 234.31 51.65 218.27
  C 64.48 132.15 128.70 65.12 214.87 49.55
  Q 229.14 46.97 232.74 46.82
  Q 256.39 45.87 274.23 48.55
  Q 332.62 57.35 377.52 98.00
  C 382.80 102.78 388.42 107.26 392.88 112.59
  C 411.31 134.58 426.61 160.35 434.26 188.00
  Q 436.55 196.29 438.87 207.12
  C 439.52 210.15 438.24 212.48 439.88 215.71
  A 1.01 1.01 0.0 0 1 439.97 216.34
  C 439.11 221.18 441.19 223.41 441.79 227.75
  Z
  M 303.8246 167.7791
  A 12.43 12.43 0.0 0 0 291.4380 155.3057
  L 208.1185 155.0149
  A 12.43 12.43 0.0 0 0 195.6452 167.4014
  L 195.3554 250.4209
  A 12.43 12.43 0.0 0 0 207.7420 262.8943
  L 291.0615 263.1851
  A 12.43 12.43 0.0 0 0 303.5348 250.7986
  L 303.8246 167.7791
  Z
  M 323.23 337.85
  A 0.99 0.99 0.0 0 0 323.93 338.99
  L 329.54 340.59
  A 0.99 0.99 0.0 0 0 330.79 339.79
  L 332.13 331.25
  A 0.99 0.99 0.0 0 1 333.02 330.41
  L 340.85 329.74
  A 0.99 0.99 0.0 0 1 341.90 330.53
  L 343.73 339.67
  A 0.99 0.99 0.0 0 0 344.79 340.46
  L 352.01 339.77
  A 0.99 0.99 0.0 0 0 352.88 338.54
  L 340.88 290.95
  A 0.99 0.99 0.0 0 0 339.81 290.21
  L 332.70 291.00
  A 0.99 0.99 0.0 0 0 331.84 291.80
  L 323.23 337.85
  Z
  M 124.30 318.82
  C 125.63 318.14 125.77 319.22 126.17 320.10
  Q 129.96 328.48 133.77 336.86
  A 1.00 0.99 -28.3 0 0 135.22 337.29
  L 140.86 333.66
  A 1.00 0.98 60.8 0 0 141.21 332.39
  L 133.49 316.51
  A 1.00 0.99 53.0 0 1 133.64 315.40
  C 138.96 309.50 141.04 299.45 134.16 293.92
  C 128.96 289.73 122.81 290.64 116.55 291.38
  A 1.01 1.01 0.0 0 0 115.67 292.36
  L 114.78 337.15
  A 0.99 0.99 0.0 0 0 115.70 338.16
  L 122.67 338.70
  A 1.00 0.99 2.4 0 0 123.75 337.71
  L 123.76 319.71
  A 1.00 1.00 0.0 0 1 124.30 318.82
  Z
  M 150.12 309.97
  C 155.57 313.37 168.20 319.03 162.57 327.43
  C 161.09 329.62 157.48 330.30 155.29 329.47
  Q 153.87 328.94 148.92 325.29
  A 1.00 1.00 0.0 0 0 147.40 325.73
  L 145.09 331.52
  A 0.99 0.99 0.0 0 0 145.54 332.77
  C 148.96 334.62 156.11 339.20 159.93 338.67
  Q 170.32 337.21 172.84 326.81
  C 174.05 321.83 172.68 316.48 168.07 313.74
  C 162.53 310.45 153.96 305.48 160.41 299.49
  A 1.03 0.97 18.8 0 1 160.96 299.24
  L 166.88 298.46
  A 1.02 1.01 4.5 0 0 167.71 297.76
  L 168.48 295.28
  A 1.01 0.99 -64.9 0 0 168.08 294.15
  C 156.35 286.30 144.80 297.63 149.80 309.60
  A 0.86 0.80 6.1 0 0 150.12 309.97
  Z
  M 299.05 338.77
  A 1.43 1.43 0.0 0 0 300.45 340.22
  L 317.52 340.56
  A 1.43 1.43 0.0 0 0 318.98 339.21
  L 319.20 335.07
  A 1.43 1.43 0.0 0 0 317.87 333.57
  L 307.11 332.85
  A 1.43 1.43 0.0 0 1 305.77 331.34
  L 307.91 294.56
  A 1.43 1.43 0.0 0 0 306.39 293.05
  L 300.99 293.40
  A 1.43 1.43 0.0 0 0 299.65 294.80
  L 299.05 338.77
  Z
  M 242.14 339.91
  A 0.64 0.64 0.0 0 0 242.76 340.54
  L 261.67 341.04
  A 0.64 0.64 0.0 0 0 262.32 340.46
  L 262.83 334.43
  A 0.64 0.64 0.0 0 0 262.16 333.74
  L 249.56 334.29
  A 0.64 0.64 0.0 0 1 248.90 333.60
  L 249.69 323.90
  A 0.64 0.64 0.0 0 1 250.37 323.32
  L 258.35 323.80
  A 0.64 0.64 0.0 0 0 259.03 323.12
  L 258.59 316.03
  A 0.64 0.64 0.0 0 0 257.90 315.43
  L 250.00 316.03
  A 0.64 0.64 0.0 0 1 249.31 315.40
  L 249.08 302.65
  A 0.64 0.64 0.0 0 1 249.72 302.00
  L 259.82 302.00
  A 0.64 0.64 0.0 0 0 260.46 301.37
  L 260.52 294.71
  A 0.64 0.64 0.0 0 0 259.80 294.07
  L 241.93 296.40
  A 0.64 0.64 0.0 0 0 241.37 297.04
  L 242.14 339.91
  Z
  M 284.03 314.79
  A 1.00 1.00 0.0 0 1 283.71 313.13
  Q 288.05 309.01 287.08 302.67
  C 285.55 292.60 275.41 294.29 267.84 296.13
  A 1.01 1.00 -8.2 0 0 267.08 297.14
  L 268.72 340.97
  A 1.01 1.00 6.3 0 0 269.47 341.90
  C 280.21 344.77 296.22 339.91 292.99 325.48
  Q 291.23 317.62 284.03 314.79
  Z
  M 375.29 314.78
  A 1.00 0.99 32.2 0 1 374.93 313.20
  Q 380.21 307.22 377.39 300.07
  C 374.45 292.61 364.45 294.65 358.71 296.02
  A 0.99 0.99 0.0 0 0 357.95 297.03
  L 359.74 340.94
  A 1.01 1.00 -83.7 0 0 360.48 341.87
  C 372.25 344.94 387.50 339.49 383.52 324.23
  Q 381.75 317.48 375.29 314.78
  Z
  M 224.29 323.80
  Q 224.22 323.68 224.19 323.51
  Q 222.74 317.33 221.78 309.79
  A 1.00 0.99 -6.9 0 0 220.67 308.93
  L 214.99 309.61
  A 1.02 1.00 -85.6 0 0 214.14 310.35
  Q 212.24 317.58 210.35 324.83
  C 209.97 326.32 209.22 324.86 209.21 324.37
  Q 208.99 310.89 208.99 297.09
  A 1.00 1.00 0.0 0 0 208.07 296.09
  L 200.89 295.52
  A 1.00 1.00 0.0 0 0 199.81 296.57
  L 202.12 340.72
  A 1.00 1.00 0.0 0 0 203.03 341.66
  L 210.37 342.35
  A 1.00 0.99 -78.0 0 0 211.41 341.67
  Q 212.64 337.94 216.49 325.25
  C 216.76 324.36 217.57 324.67 217.76 325.45
  Q 219.52 332.77 221.38 340.07
  A 1.01 0.99 -11.4 0 0 222.51 340.81
  L 229.85 339.62
  A 1.01 0.99 -0.5 0 0 230.68 338.79
  Q 233.78 318.93 236.71 299.74
  Q 237.25 296.13 234.50 296.69
  C 232.42 297.12 230.26 297.39 228.25 297.99
  A 0.99 0.98 84.4 0 0 227.55 298.85
  L 225.06 323.66
  Q 224.92 325.07 224.29 323.80
  Z
  M 96.84 392.65
  C 124.48 422.81 163.24 446.93 203.33 455.24
  A 0.41 0.41 0.0 0 0 203.66 455.17
  Q 203.93 454.97 203.48 454.85
  Q 145.41 439.23 103.05 397.51
  C 85.88 380.59 73.74 361.95 61.77 340.49
  Q 61.33 339.70 61.27 340.82
  A 1.00 0.99 33.5 0 0 61.38 341.35
  Q 76.78 370.77 96.84 392.65
  Z
  M 380.5413 391.1619
  A 4.64 0.65 -43.4 0 0 376.7234 393.8777
  A 4.64 0.65 -43.4 0 0 373.7987 397.5381
  A 4.64 0.65 -43.4 0 0 377.6166 394.8223
  A 4.64 0.65 -43.4 0 0 380.5413 391.1619
  Z
  M 125.21 409.48
  C 133.71 416.04 141.48 421.33 150.99 426.75
  Q 158.63 431.10 161.69 433.06
  Q 162.17 433.37 162.63 434.28
  Q 163.49 436.01 164.10 434.18
  L 164.20 433.90
  A 1.01 1.00 -67.4 0 0 163.71 432.69
  Q 143.71 422.31 125.74 408.74
  Q 124.74 407.98 124.83 408.80
  A 1.02 1.01 -74.5 0 0 125.21 409.48
  Z
  M 317.32 430.41
  C 316.67 431.98 322.70 430.64 317.85 430.09
  A 0.52 0.51 -75.5 0 0 317.32 430.41
  Z
  M 165.74 436.99
  Q 168.01 437.65 166.86 435.62
  Q 166.25 434.54 165.38 435.26
  Q 163.92 436.46 165.74 436.99
  Z
  M 168.49 436.31
  Q 166.48 437.76 168.96 437.76
  Q 169.67 437.76 170.22 437.38
  Q 172.20 436.02 169.80 435.92
  Q 169.07 435.90 168.49 436.31
  Z
  M 182.6964 440.9837
  A 0.31 0.31 0.0 0 0 182.5069 440.5884
  L 172.6786 437.1273
  A 0.31 0.31 0.0 0 0 172.2832 437.3167
  L 172.1636 437.6563
  A 0.31 0.31 0.0 0 0 172.3531 438.0516
  L 182.1814 441.5127
  A 0.31 0.31 0.0 0 0 182.5768 441.3233
  L 182.6964 440.9837
  Z
  M 285.35 453.60
  Q 304.31 450.45 320.78 443.27
  Q 321.13 443.12 321.39 442.88
  Q 322.53 441.81 321.06 442.33
  Q 313.89 444.85 306.68 447.24
  C 299.65 449.58 291.95 450.92 284.55 452.68
  Q 282.24 453.23 285.05 453.61
  Q 285.20 453.63 285.35 453.60
  Z
  M 186.89 443.16
  C 188.64 443.90 204.74 449.39 205.24 448.08
  A 0.26 0.26 0.0 0 0 205.07 447.74
  L 187.51 442.43
  A 0.99 0.97 -47.8 0 0 186.82 442.47
  Q 186.06 442.81 186.89 443.16
  Z
  M 211.4821 449.5039
  A 3.04 0.35 13.0 0 0 208.5987 448.4790
  A 3.04 0.35 13.0 0 0 205.5579 448.1361
  A 3.04 0.35 13.0 0 0 208.4413 449.1610
  A 3.04 0.35 13.0 0 0 211.4821 449.5039
  Z
  M 219.6421 450.5555
  A 3.26 0.71 7.5 0 0 216.5027 449.4261
  A 3.26 0.71 7.5 0 0 213.1779 449.7045
  A 3.26 0.71 7.5 0 0 216.3173 450.8339
  A 3.26 0.71 7.5 0 0 219.6421 450.5555
  Z
  M 278.09 455.03
  Q 278.90 455.13 279.69 454.84
  Q 281.64 454.13 279.58 453.85
  Q 277.38 453.55 275.17 453.84
  Q 258.74 456.01 241.23 454.89
  Q 241.11 454.88 240.98 454.90
  C 240.77 454.94 235.69 456.15 239.78 456.24
  Q 252.61 456.50 265.47 456.25
  C 269.80 456.17 273.54 454.50 278.09 455.03
  Z"
/>
<path fill="#264653" d="
  M 441.89 257.03
  C 444.33 246.40 443.39 238.64 442.71 229.02
  A 0.95 0.94 20.8 0 0 442.42 228.39
  L 441.79 227.75
  C 441.19 223.41 439.11 221.18 439.97 216.34
  A 1.01 1.01 0.0 0 0 439.88 215.71
  C 438.24 212.48 439.52 210.15 438.87 207.12
  Q 436.55 196.29 434.26 188.00
  C 426.61 160.35 411.31 134.58 392.88 112.59
  C 388.42 107.26 382.80 102.78 377.52 98.00
  Q 332.62 57.35 274.23 48.55
  Q 256.39 45.87 232.74 46.82
  Q 229.14 46.97 214.87 49.55
  C 128.70 65.12 64.48 132.15 51.65 218.27
  Q 49.26 234.31 48.69 250.50
  Q 48.49 256.08 48.17 250.18
  C 46.71 223.12 53.19 194.00 62.78 169.02
  Q 62.90 168.72 62.92 168.46
  Q 63.09 166.57 62.30 168.30
  C 50.90 193.28 45.99 223.35 45.16 250.61
  C 45.13 251.78 43.85 252.41 43.81 250.80
  Q 42.87 211.22 56.85 174.29
  C 57.23 173.29 56.69 172.25 56.07 173.71
  Q 52.24 182.84 48.24 191.89
  C 47.82 192.84 48.00 191.41 48.02 191.35
  C 62.17 142.44 92.30 98.49 134.73 70.29
  Q 196.61 29.16 272.45 36.70
  A 0.99 0.96 32.8 0 0 273.01 36.59
  C 274.54 35.80 275.84 35.18 277.65 35.40
  Q 298.63 38.06 318.18 46.07
  Q 322.25 47.73 338.46 55.66
  C 393.41 82.53 436.89 130.12 452.72 190.01
  Q 465.00 236.47 458.00 283.25
  C 444.51 373.44 375.17 444.29 285.83 460.36
  Q 268.14 463.54 250.18 463.27
  A 0.43 0.43 0.0 0 1 249.86 463.10
  C 249.10 462.06 261.61 461.31 263.50 461.20
  C 276.33 460.43 288.31 458.12 300.53 454.63
  Q 301.44 454.38 300.57 454.02
  C 299.18 453.45 294.02 454.78 292.70 455.07
  C 271.72 459.67 250.45 460.51 228.49 458.49
  Q 223.38 458.02 219.80 457.45
  Q 214.40 456.60 219.86 456.80
  Q 222.86 456.91 226.19 457.56
  Q 230.63 458.42 237.07 458.53
  Q 257.17 458.86 263.50 458.44
  Q 267.54 458.17 282.50 455.81
  Q 326.82 448.84 363.53 423.25
  Q 392.79 402.85 414.08 374.25
  Q 415.26 372.66 413.28 372.66
  L 412.16 372.65
  A 1.00 1.00 0.0 0 0 411.36 373.05
  Q 377.63 418.34 325.42 439.87
  Q 325.06 440.02 325.14 439.64
  Q 325.18 439.42 325.54 439.26
  Q 334.29 435.38 340.91 431.15
  A 1.01 0.99 75.2 0 0 341.37 430.34
  C 341.48 427.07 343.94 427.24 345.89 426.10
  C 369.07 412.68 389.63 395.03 404.48 372.57
  Q 404.70 372.25 404.31 372.25
  L 403.99 372.25
  A 0.39 0.36 18.8 0 0 403.70 372.38
  Q 394.49 381.98 384.44 390.69
  A 0.33 0.33 0.0 0 1 383.94 390.60
  L 383.81 390.37
  A 0.42 0.41 52.4 0 1 383.87 389.88
  C 409.90 362.64 427.78 331.40 436.73 294.49
  C 438.67 286.45 439.39 278.33 440.65 270.53
  Q 441.73 263.84 441.89 257.03
  Z
  M 422.42 366.92
  Q 397.93 402.20 362.59 426.64
  C 362.02 427.03 360.95 428.73 362.74 427.58
  Q 399.35 404.04 423.07 367.56
  A 1.04 1.01 -35.4 0 0 423.21 366.79
  Q 423.04 366.03 422.42 366.92
  Z"
/>
<path fill="#184969" d="
  M 303.5348 250.7986
  A 12.43 12.43 0.0 0 1 291.0615 263.1851
  L 207.7420 262.8943
  A 12.43 12.43 0.0 0 1 195.3554 250.4209
  L 195.6452 167.4014
  A 12.43 12.43 0.0 0 1 208.1185 155.0149
  L 291.4380 155.3057
  A 12.43 12.43 0.0 0 1 303.8246 167.7791
  L 303.5348 250.7986
  Z
  M 300.78 162.94
  C 300.67 160.95 294.40 157.84 293.18 157.81
  Q 271.74 157.27 210.32 157.82
  C 199.50 157.92 195.67 164.73 198.47 174.77
  A 1.00 0.99 -7.6 0 0 199.43 175.50
  L 300.24 175.55
  A 1.00 1.00 0.0 0 0 301.24 174.52
  Q 301.11 169.03 300.78 162.94
  Z
  M 299.99 178.12
  C 265.95 178.06 232.61 177.63 199.00 178.22
  A 1.00 0.99 89.7 0 0 198.02 179.22
  Q 197.96 212.47 198.03 245.72
  C 198.05 253.62 198.66 260.49 208.00 260.50
  Q 247.93 260.51 287.87 260.49
  C 295.23 260.48 300.94 259.39 300.96 250.93
  Q 301.04 214.48 300.99 179.12
  A 1.01 1.00 89.7 0 0 299.99 178.12
  Z"
/>
<path fill="#ffffff" d="
  M 293.18 157.81
  C 294.40 157.84 300.67 160.95 300.78 162.94
  Q 301.11 169.03 301.24 174.52
  A 1.00 1.00 0.0 0 1 300.24 175.55
  L 199.43 175.50
  A 1.00 0.99 -7.6 0 1 198.47 174.77
  C 195.67 164.73 199.50 157.92 210.32 157.82
  Q 271.74 157.27 293.18 157.81
  Z
  M 249.53 165.89
  A 4.64 4.64 0.0 0 0 244.89 161.25
  L 208.93 161.25
  A 4.64 4.64 0.0 0 0 204.29 165.89
  L 204.29 167.35
  A 4.64 4.64 0.0 0 0 208.93 171.99
  L 244.89 171.99
  A 4.64 4.64 0.0 0 0 249.53 167.35
  L 249.53 165.89
  Z
  M 267.18 166.57
  A 5.23 5.23 0.0 0 0 261.95 161.34
  A 5.23 5.23 0.0 0 0 256.72 166.57
  A 5.23 5.23 0.0 0 0 261.95 171.80
  A 5.23 5.23 0.0 0 0 267.18 166.57
  Z
  M 280.61 166.61
  A 5.24 5.24 0.0 0 0 275.37 161.37
  A 5.24 5.24 0.0 0 0 270.13 166.61
  A 5.24 5.24 0.0 0 0 275.37 171.85
  A 5.24 5.24 0.0 0 0 280.61 166.61
  Z
  M 294.17 166.60
  A 5.22 5.22 0.0 0 0 288.95 161.38
  A 5.22 5.22 0.0 0 0 283.73 166.60
  A 5.22 5.22 0.0 0 0 288.95 171.82
  A 5.22 5.22 0.0 0 0 294.17 166.60
  Z"
/>
<path fill="#184969" d="
  M 249.53 167.35
  A 4.64 4.64 0.0 0 1 244.89 171.99
  L 208.93 171.99
  A 4.64 4.64 0.0 0 1 204.29 167.35
  L 204.29 165.89
  A 4.64 4.64 0.0 0 1 208.93 161.25
  L 244.89 161.25
  A 4.64 4.64 0.0 0 1 249.53 165.89
  L 249.53 167.35
  Z
  M 247.49 166.27
  A 2.52 2.52 0.0 0 0 244.97 163.75
  L 209.01 163.75
  A 2.52 2.52 0.0 0 0 206.49 166.27
  L 206.49 166.99
  A 2.52 2.52 0.0 0 0 209.01 169.51
  L 244.97 169.51
  A 2.52 2.52 0.0 0 0 247.49 166.99
  L 247.49 166.27
  Z"
/>
<path fill="#234e5e" d="
  M 267.18 166.57
  A 5.23 5.23 0.0 0 1 261.95 171.80
  A 5.23 5.23 0.0 0 1 256.72 166.57
  A 5.23 5.23 0.0 0 1 261.95 161.34
  A 5.23 5.23 0.0 0 1 267.18 166.57
  Z
  M 264.83 166.66
  A 2.88 2.88 0.0 0 0 261.95 163.78
  A 2.88 2.88 0.0 0 0 259.07 166.66
  A 2.88 2.88 0.0 0 0 261.95 169.54
  A 2.88 2.88 0.0 0 0 264.83 166.66
  Z"
/>
<path fill="#234e5e" d="
  M 280.61 166.61
  A 5.24 5.24 0.0 0 1 275.37 171.85
  A 5.24 5.24 0.0 0 1 270.13 166.61
  A 5.24 5.24 0.0 0 1 275.37 161.37
  A 5.24 5.24 0.0 0 1 280.61 166.61
  Z
  M 278.32 166.66
  A 2.90 2.90 0.0 0 0 275.42 163.76
  A 2.90 2.90 0.0 0 0 272.52 166.66
  A 2.90 2.90 0.0 0 0 275.42 169.56
  A 2.90 2.90 0.0 0 0 278.32 166.66
  Z"
/>
<path fill="#234e5e" d="
  M 294.17 166.60
  A 5.22 5.22 0.0 0 1 288.95 171.82
  A 5.22 5.22 0.0 0 1 283.73 166.60
  A 5.22 5.22 0.0 0 1 288.95 161.38
  A 5.22 5.22 0.0 0 1 294.17 166.60
  Z
  M 291.82 166.64
  A 2.83 2.83 0.0 0 0 288.99 163.81
  A 2.83 2.83 0.0 0 0 286.16 166.64
  A 2.83 2.83 0.0 0 0 288.99 169.47
  A 2.83 2.83 0.0 0 0 291.82 166.64
  Z"
/>
<rect fill="#ffffff" x="206.49" y="163.75" width="41.00" height="5.76" rx="2.52"/>
<circle fill="#ffffff" cx="261.95" cy="166.66" r="2.88"/>
<circle fill="#ffffff" cx="275.42" cy="166.66" r="2.90"/>
<circle fill="#ffffff" cx="288.99" cy="166.64" r="2.83"/>
<path fill="#ffffff" d="
  M 199.00 178.22
  C 232.61 177.63 265.95 178.06 299.99 178.12
  A 1.01 1.00 89.7 0 1 300.99 179.12
  Q 301.04 214.48 300.96 250.93
  C 300.94 259.39 295.23 260.48 287.87 260.49
  Q 247.93 260.51 208.00 260.50
  C 198.66 260.49 198.05 253.62 198.03 245.72
  Q 197.96 212.47 198.02 179.22
  A 1.00 0.99 89.7 0 1 199.00 178.22
  Z
  M 240.40 237.28
  C 239.01 236.12 236.47 236.44 234.91 236.32
  Q 232.77 236.16 232.77 234.02
  Q 232.75 226.76 232.74 221.23
  Q 232.73 219.16 230.49 217.89
  A 1.00 1.00 0.0 0 1 230.20 216.39
  L 232.51 213.55
  A 1.03 1.01 -26.6 0 0 232.73 212.92
  L 232.75 198.69
  A 1.01 1.00 2.6 0 1 233.85 197.70
  C 235.06 197.82 245.45 197.35 239.41 193.54
  A 1.00 0.96 -30.2 0 0 238.79 193.39
  L 229.92 194.19
  A 1.00 0.99 -2.5 0 0 229.01 195.18
  L 229.00 211.20
  A 1.00 0.97 -25.5 0 1 228.76 211.84
  L 224.84 216.45
  A 1.00 1.00 0.0 0 0 224.85 217.76
  L 228.75 222.16
  A 1.03 1.02 24.9 0 1 229.00 222.83
  L 229.00 238.55
  A 1.00 1.00 0.0 0 0 229.85 239.54
  C 230.23 239.60 245.01 241.14 240.40 237.28
  Z
  M 272.21 217.71
  L 270.00 220.23
  A 1.05 1.02 -25.8 0 0 269.76 220.89
  L 269.73 235.21
  A 1.00 1.00 0.0 0 1 268.76 236.21
  C 267.89 236.24 258.55 236.13 262.21 239.70
  A 1.04 0.99 66.7 0 0 262.89 239.99
  C 265.93 240.03 273.25 241.39 273.43 236.93
  Q 273.60 232.80 273.49 222.59
  A 1.00 0.96 64.6 0 1 273.71 221.94
  L 277.21 217.69
  A 1.00 0.99 -44.8 0 0 277.22 216.43
  L 273.75 212.16
  A 1.02 0.97 -65.7 0 1 273.53 211.53
  L 273.43 195.66
  A 1.00 0.99 8.8 0 0 272.73 194.71
  C 270.91 194.15 258.06 191.34 262.36 197.04
  A 0.99 0.98 72.5 0 0 263.10 197.43
  L 268.78 197.76
  A 1.00 1.00 0.0 0 1 269.72 198.76
  L 269.76 213.11
  A 1.00 0.97 25.5 0 0 270.00 213.75
  L 272.23 216.40
  A 1.01 1.00 -44.3 0 1 272.21 217.71
  Z"
/>
<path fill="#264653" d="
  M 240.40 237.28
  C 245.01 241.14 230.23 239.60 229.85 239.54
  A 1.00 1.00 0.0 0 1 229.00 238.55
  L 229.00 222.83
  A 1.03 1.02 24.9 0 0 228.75 222.16
  L 224.85 217.76
  A 1.00 1.00 0.0 0 1 224.84 216.45
  L 228.76 211.84
  A 1.00 0.97 -25.5 0 0 229.00 211.20
  L 229.01 195.18
  A 1.00 0.99 -2.5 0 1 229.92 194.19
  L 238.79 193.39
  A 1.00 0.96 -30.2 0 1 239.41 193.54
  C 245.45 197.35 235.06 197.82 233.85 197.70
  A 1.01 1.00 2.6 0 0 232.75 198.69
  L 232.73 212.92
  A 1.03 1.01 -26.6 0 1 232.51 213.55
  L 230.20 216.39
  A 1.00 1.00 0.0 0 0 230.49 217.89
  Q 232.73 219.16 232.74 221.23
  Q 232.75 226.76 232.77 234.02
  Q 232.77 236.16 234.91 236.32
  C 236.47 236.44 239.01 236.12 240.40 237.28
  Z"
/>
<path fill="#1e4b5a" d="
  M 272.23 216.40
  L 270.00 213.75
  A 1.00 0.97 25.5 0 1 269.76 213.11
  L 269.72 198.76
  A 1.00 1.00 0.0 0 0 268.78 197.76
  L 263.10 197.43
  A 0.99 0.98 72.5 0 1 262.36 197.04
  C 258.06 191.34 270.91 194.15 272.73 194.71
  A 1.00 0.99 8.8 0 1 273.43 195.66
  L 273.53 211.53
  A 1.02 0.97 -65.7 0 0 273.75 212.16
  L 277.22 216.43
  A 1.00 0.99 -44.8 0 1 277.21 217.69
  L 273.71 221.94
  A 1.00 0.96 64.6 0 0 273.49 222.59
  Q 273.60 232.80 273.43 236.93
  C 273.25 241.39 265.93 240.03 262.89 239.99
  A 1.04 0.99 66.7 0 1 262.21 239.70
  C 258.55 236.13 267.89 236.24 268.76 236.21
  A 1.00 1.00 0.0 0 0 269.73 235.21
  L 269.76 220.89
  A 1.05 1.02 -25.8 0 1 270.00 220.23
  L 272.21 217.71
  A 1.01 1.00 -44.3 0 0 272.23 216.40
  Z"
/>
<path fill="#2c6578" d="
  M 441.79 227.75
  L 442.42 228.39
  A 0.95 0.94 20.8 0 1 442.71 229.02
  C 443.39 238.64 444.33 246.40 441.89 257.03
  Q 441.65 249.85 441.08 242.75
  C 440.66 237.61 441.69 232.97 441.79 227.75
  Z"
/>
<path fill="#264653" d="
  M 323.23 337.85
  L 331.84 291.80
  A 0.99 0.99 0.0 0 1 332.70 291.00
  L 339.81 290.21
  A 0.99 0.99 0.0 0 1 340.88 290.95
  L 352.88 338.54
  A 0.99 0.99 0.0 0 1 352.01 339.77
  L 344.79 340.46
  A 0.99 0.99 0.0 0 1 343.73 339.67
  L 341.90 330.53
  A 0.99 0.99 0.0 0 0 340.85 329.74
  L 333.02 330.41
  A 0.99 0.99 0.0 0 0 332.13 331.25
  L 330.79 339.79
  A 0.99 0.99 0.0 0 1 329.54 340.59
  L 323.93 338.99
  A 0.99 0.99 0.0 0 1 323.23 337.85
  Z
  M 333.96 321.81
  A 0.40 0.40 0.0 0 0 334.36 322.28
  L 339.59 322.21
  A 0.40 0.40 0.0 0 0 339.98 321.73
  L 337.17 308.18
  A 0.40 0.40 0.0 0 0 336.39 308.19
  L 333.96 321.81
  Z"
/>
<path fill="#264653" d="
  M 124.30 318.82
  A 1.00 1.00 0.0 0 0 123.76 319.71
  L 123.75 337.71
  A 1.00 0.99 2.4 0 1 122.67 338.70
  L 115.70 338.16
  A 0.99 0.99 0.0 0 1 114.78 337.15
  L 115.67 292.36
  A 1.01 1.01 0.0 0 1 116.55 291.38
  C 122.81 290.64 128.96 289.73 134.16 293.92
  C 141.04 299.45 138.96 309.50 133.64 315.40
  A 1.00 0.99 53.0 0 0 133.49 316.51
  L 141.21 332.39
  A 1.00 0.98 60.8 0 1 140.86 333.66
  L 135.22 337.29
  A 1.00 0.99 -28.3 0 1 133.77 336.86
  Q 129.96 328.48 126.17 320.10
  C 125.77 319.22 125.63 318.14 124.30 318.82
  Z
  M 128.61 298.96
  L 124.78 299.13
  A 1.00 0.99 1.3 0 0 123.83 300.03
  L 123.22 306.62
  A 1.01 1.00 -84.0 0 0 124.09 307.70
  C 129.30 308.40 133.34 303.90 129.42 299.31
  A 1.02 1.01 -21.5 0 0 128.61 298.96
  Z"
/>
<path fill="#264653" d="
  M 162.57 327.43
  C 168.20 319.03 155.57 313.37 150.12 309.97
  A 0.86 0.80 6.1 0 1 149.80 309.60
  C 144.80 297.63 156.35 286.30 168.08 294.15
  A 1.01 0.99 -64.9 0 1 168.48 295.28
  L 167.71 297.76
  A 1.02 1.01 4.5 0 1 166.88 298.46
  L 160.96 299.24
  A 1.03 0.97 18.8 0 0 160.41 299.49
  C 153.96 305.48 162.53 310.45 168.07 313.74
  C 172.68 316.48 174.05 321.83 172.84 326.81
  Q 170.32 337.21 159.93 338.67
  C 156.11 339.20 148.96 334.62 145.54 332.77
  A 0.99 0.99 0.0 0 1 145.09 331.52
  L 147.40 325.73
  A 1.00 1.00 0.0 0 1 148.92 325.29
  Q 153.87 328.94 155.29 329.47
  C 157.48 330.30 161.09 329.62 162.57 327.43
  Z"
/>
<path fill="#264653" d="
  M 299.05 338.77
  L 299.65 294.80
  A 1.43 1.43 0.0 0 1 300.99 293.40
  L 306.39 293.05
  A 1.43 1.43 0.0 0 1 307.91 294.56
  L 305.77 331.34
  A 1.43 1.43 0.0 0 0 307.11 332.85
  L 317.87 333.57
  A 1.43 1.43 0.0 0 1 319.20 335.07
  L 318.98 339.21
  A 1.43 1.43 0.0 0 1 317.52 340.56
  L 300.45 340.22
  A 1.43 1.43 0.0 0 1 299.05 338.77
  Z"
/>
<path fill="#264653" d="
  M 242.14 339.91
  L 241.37 297.04
  A 0.64 0.64 0.0 0 1 241.93 296.40
  L 259.80 294.07
  A 0.64 0.64 0.0 0 1 260.52 294.71
  L 260.46 301.37
  A 0.64 0.64 0.0 0 1 259.82 302.00
  L 249.72 302.00
  A 0.64 0.64 0.0 0 0 249.08 302.65
  L 249.31 315.40
  A 0.64 0.64 0.0 0 0 250.00 316.03
  L 257.90 315.43
  A 0.64 0.64 0.0 0 1 258.59 316.03
  L 259.03 323.12
  A 0.64 0.64 0.0 0 1 258.35 323.80
  L 250.37 323.32
  A 0.64 0.64 0.0 0 0 249.69 323.90
  L 248.90 333.60
  A 0.64 0.64 0.0 0 0 249.56 334.29
  L 262.16 333.74
  A 0.64 0.64 0.0 0 1 262.83 334.43
  L 262.32 340.46
  A 0.64 0.64 0.0 0 1 261.67 341.04
  L 242.76 340.54
  A 0.64 0.64 0.0 0 1 242.14 339.91
  Z"
/>
<path fill="#264653" d="
  M 284.03 314.79
  Q 291.23 317.62 292.99 325.48
  C 296.22 339.91 280.21 344.77 269.47 341.90
  A 1.01 1.00 6.3 0 1 268.72 340.97
  L 267.08 297.14
  A 1.01 1.00 -8.2 0 1 267.84 296.13
  C 275.41 294.29 285.55 292.60 287.08 302.67
  Q 288.05 309.01 283.71 313.13
  A 1.00 1.00 0.0 0 0 284.03 314.79
  Z
  M 276.07 300.45
  A 1.00 1.00 0.0 0 0 274.67 301.42
  L 275.17 309.85
  Q 275.29 311.91 276.83 310.54
  C 280.78 307.04 282.00 303.05 276.07 300.45
  Z
  M 277.90 333.54
  C 288.47 332.56 283.09 322.22 277.45 319.45
  A 1.00 1.00 0.0 0 0 276.01 320.41
  L 276.81 332.61
  A 1.00 0.99 85.3 0 0 277.90 333.54
  Z"
/>
<path fill="#264653" d="
  M 375.29 314.78
  Q 381.75 317.48 383.52 324.23
  C 387.50 339.49 372.25 344.94 360.48 341.87
  A 1.01 1.00 -83.7 0 1 359.74 340.94
  L 357.95 297.03
  A 0.99 0.99 0.0 0 1 358.71 296.02
  C 364.45 294.65 374.45 292.61 377.39 300.07
  Q 380.21 307.22 374.93 313.20
  A 1.00 0.99 32.2 0 0 375.29 314.78
  Z
  M 367.25 301.08
  A 1.00 1.00 0.0 0 0 365.86 302.06
  L 366.30 309.44
  Q 366.42 311.28 367.90 310.18
  C 372.03 307.11 372.74 303.43 367.25 301.08
  Z
  M 372.30 322.45
  C 370.78 320.76 369.32 318.89 367.23 320.36
  A 0.98 0.97 70.5 0 0 366.81 321.25
  L 367.73 333.45
  A 1.00 1.00 0.0 0 0 369.19 334.26
  Q 378.50 329.33 372.30 322.45
  Z"
/>
<path fill="#264653" d="
  M 225.06 323.66
  L 227.55 298.85
  A 0.99 0.98 84.4 0 1 228.25 297.99
  C 230.26 297.39 232.42 297.12 234.50 296.69
  Q 237.25 296.13 236.71 299.74
  Q 233.78 318.93 230.68 338.79
  A 1.01 0.99 -0.5 0 1 229.85 339.62
  L 222.51 340.81
  A 1.01 0.99 -11.4 0 1 221.38 340.07
  Q 219.52 332.77 217.76 325.45
  C 217.57 324.67 216.76 324.36 216.49 325.25
  Q 212.64 337.94 211.41 341.67
  A 1.00 0.99 -78.0 0 1 210.37 342.35
  L 203.03 341.66
  A 1.00 1.00 0.0 0 1 202.12 340.72
  L 199.81 296.57
  A 1.00 1.00 0.0 0 1 200.89 295.52
  L 208.07 296.09
  A 1.00 1.00 0.0 0 1 208.99 297.09
  Q 208.99 310.89 209.21 324.37
  C 209.22 324.86 209.97 326.32 210.35 324.83
  Q 212.24 317.58 214.14 310.35
  A 1.02 1.00 -85.6 0 1 214.99 309.61
  L 220.67 308.93
  A 1.00 0.99 -6.9 0 1 221.78 309.79
  Q 222.74 317.33 224.19 323.51
  Q 224.22 323.68 224.29 323.80
  Q 224.92 325.07 225.06 323.66
  Z"
/>
<path fill="#ffffff" d="
  M 129.42 299.31
  C 133.34 303.90 129.30 308.40 124.09 307.70
  A 1.01 1.00 -84.0 0 1 123.22 306.62
  L 123.83 300.03
  A 1.00 0.99 1.3 0 1 124.78 299.13
  L 128.61 298.96
  A 1.02 1.01 -21.5 0 1 129.42 299.31
  Z"
/>
<path fill="#ffffff" d="
  M 276.07 300.45
  C 282.00 303.05 280.78 307.04 276.83 310.54
  Q 275.29 311.91 275.17 309.85
  L 274.67 301.42
  A 1.00 1.00 0.0 0 1 276.07 300.45
  Z"
/>
<path fill="#ffffff" d="
  M 367.25 301.08
  C 372.74 303.43 372.03 307.11 367.90 310.18
  Q 366.42 311.28 366.30 309.44
  L 365.86 302.06
  A 1.00 1.00 0.0 0 1 367.25 301.08
  Z"
/>
<path fill="#ffffff" d="
  M 333.96 321.81
  L 336.39 308.19
  A 0.40 0.40 0.0 0 1 337.17 308.18
  L 339.98 321.73
  A 0.40 0.40 0.0 0 1 339.59 322.21
  L 334.36 322.28
  A 0.40 0.40 0.0 0 1 333.96 321.81
  Z"
/>
<path fill="#ffffff" d="
  M 277.90 333.54
  A 1.00 0.99 85.3 0 1 276.81 332.61
  L 276.01 320.41
  A 1.00 1.00 0.0 0 1 277.45 319.45
  C 283.09 322.22 288.47 332.56 277.90 333.54
  Z"
/>
<path fill="#ffffff" d="
  M 372.30 322.45
  Q 378.50 329.33 369.19 334.26
  A 1.00 1.00 0.0 0 1 367.73 333.45
  L 366.81 321.25
  A 0.98 0.97 70.5 0 1 367.23 320.36
  C 369.32 318.89 370.78 320.76 372.30 322.45
  Z"
/>
<path fill="#010202" d="
  M 96.84 392.65
  Q 76.78 370.77 61.38 341.35
  A 1.00 0.99 33.5 0 1 61.27 340.82
  Q 61.33 339.70 61.77 340.49
  C 73.74 361.95 85.88 380.59 103.05 397.51
  Q 145.41 439.23 203.48 454.85
  Q 203.93 454.97 203.66 455.17
  A 0.41 0.41 0.0 0 1 203.33 455.24
  C 163.24 446.93 124.48 422.81 96.84 392.65
  Z"
/>
<path fill="#ffffff" d="
  M 422.42 366.92
  Q 423.04 366.03 423.21 366.79
  A 1.04 1.01 -35.4 0 1 423.07 367.56
  Q 399.35 404.04 362.74 427.58
  C 360.95 428.73 362.02 427.03 362.59 426.64
  Q 397.93 402.20 422.42 366.92
  Z"
/>
<ellipse fill="#234e5e" cx="0.00" cy="0.00" transform="translate(377.17,394.35) rotate(-43.4)" rx="4.64" ry="0.65"/>
<path fill="#010202" d="
  M 125.21 409.48
  A 1.02 1.01 -74.5 0 1 124.83 408.80
  Q 124.74 407.98 125.74 408.74
  Q 143.71 422.31 163.71 432.69
  A 1.01 1.00 -67.4 0 1 164.20 433.90
  L 164.10 434.18
  Q 163.49 436.01 162.63 434.28
  Q 162.17 433.37 161.69 433.06
  Q 158.63 431.10 150.99 426.75
  C 141.48 421.33 133.71 416.04 125.21 409.48
  Z"
/>
<path fill="#272428" d="
  M 317.85 430.09
  C 322.70 430.64 316.67 431.98 317.32 430.41
  A 0.52 0.51 -75.5 0 1 317.85 430.09
  Z"
/>
<path fill="#010202" d="
  M 165.74 436.99
  Q 163.92 436.46 165.38 435.26
  Q 166.25 434.54 166.86 435.62
  Q 168.01 437.65 165.74 436.99
  Z"
/>
<path fill="#010202" d="
  M 168.49 436.31
  Q 169.07 435.90 169.80 435.92
  Q 172.20 436.02 170.22 437.38
  Q 169.67 437.76 168.96 437.76
  Q 166.48 437.76 168.49 436.31
  Z"
/>
<rect fill="#010202" x="-5.52" y="-0.49" transform="translate(177.43,439.32) rotate(19.4)" width="11.04" height="0.98" rx="0.31"/>
<path fill="#272428" d="
  M 285.35 453.60
  Q 285.20 453.63 285.05 453.61
  Q 282.24 453.23 284.55 452.68
  C 291.95 450.92 299.65 449.58 306.68 447.24
  Q 313.89 444.85 321.06 442.33
  Q 322.53 441.81 321.39 442.88
  Q 321.13 443.12 320.78 443.27
  Q 304.31 450.45 285.35 453.60
  Z"
/>
<path fill="#010202" d="
  M 186.89 443.16
  Q 186.06 442.81 186.82 442.47
  A 0.99 0.97 -47.8 0 1 187.51 442.43
  L 205.07 447.74
  A 0.26 0.26 0.0 0 1 205.24 448.08
  C 204.74 449.39 188.64 443.90 186.89 443.16
  Z"
/>
<ellipse fill="#181817" cx="0.00" cy="0.00" transform="translate(208.52,448.82) rotate(13.0)" rx="3.04" ry="0.35"/>
<ellipse fill="#010202" cx="0.00" cy="0.00" transform="translate(216.41,450.13) rotate(7.5)" rx="3.26" ry="0.71"/>
<path fill="#181817" d="
  M 278.09 455.03
  C 273.54 454.50 269.80 456.17 265.47 456.25
  Q 252.61 456.50 239.78 456.24
  C 235.69 456.15 240.77 454.94 240.98 454.90
  Q 241.11 454.88 241.23 454.89
  Q 258.74 456.01 275.17 453.84
  Q 277.38 453.55 279.58 453.85
  Q 281.64 454.13 279.69 454.84
  Q 278.90 455.13 278.09 455.03
  Z"
/>
</svg>
