<svg width="73" height="74" viewBox="0 0 73 74" fill="none"
    xmlns="http://www.w3.org/2000/svg">
    <path d="M71.1272 46.3367L65.7988 41.72C66.0514 40.1508 66.1818 38.5485 66.1818 36.9546C66.1818 35.3606 66.0514 33.7501 65.7988 32.1892L71.1272 27.5724C71.5297 27.2231 71.8178 26.7579 71.9531 26.2386C72.0885 25.7193 72.0647 25.1705 71.8849 24.6653L71.8116 24.4506C70.3451 20.2938 68.1479 16.4407 65.3263 13.078L65.1796 12.9046C64.837 12.4962 64.3803 12.2026 63.8699 12.0626C63.3594 11.9225 62.819 11.9425 62.3199 12.12L55.7043 14.5068C53.2601 12.4751 50.5389 10.8729 47.5896 9.75792L46.3104 2.74609C46.2139 2.21787 45.9612 1.73192 45.5857 1.35279C45.2102 0.973671 44.7299 0.719325 44.2084 0.623549L43.9885 0.582254C39.7519 -0.194085 35.2871 -0.194085 31.0505 0.582254L30.8305 0.623549C30.3091 0.719325 29.8287 0.973671 29.4532 1.35279C29.0778 1.73192 28.825 2.21787 28.7285 2.74609L27.4412 9.79096C24.5199 10.9148 21.7984 12.5132 19.3835 14.5233L12.719 12.12C12.2201 11.9411 11.6794 11.9204 11.1686 12.0605C10.6578 12.2007 10.2011 12.4951 9.85932 12.9046L9.71267 13.078C6.89609 16.4443 4.69938 20.2964 3.2274 24.4506L3.15407 24.6653C2.78745 25.6977 3.0889 26.8539 3.91177 27.5724L9.3053 32.2387C9.05274 33.7914 8.93052 35.3771 8.93052 36.9463C8.93052 38.532 9.05274 40.1177 9.3053 41.6539L3.92807 46.3202C3.52556 46.6695 3.23747 47.1347 3.10213 47.654C2.96678 48.1733 2.99058 48.7221 3.17037 49.2273L3.24369 49.4421C4.71835 53.5963 6.8937 57.4367 9.72896 60.8146L9.87561 60.9881C10.2182 61.3964 10.6749 61.69 11.1854 61.8301C11.6959 61.9701 12.2363 61.9501 12.7353 61.7727L19.3998 59.3693C21.8277 61.3927 24.5327 62.995 27.4575 64.1017L28.7448 71.1465C28.8413 71.6748 29.0941 72.1607 29.4695 72.5398C29.845 72.919 30.3254 73.1733 30.8468 73.2691L31.0668 73.3104C35.3451 74.0909 39.7265 74.0909 44.0047 73.3104L44.2247 73.2691C44.7462 73.1733 45.2265 72.919 45.602 72.5398C45.9774 72.1607 46.2302 71.6748 46.3267 71.1465L47.6059 64.1347C50.5552 63.0115 53.2764 61.4175 55.7206 59.3858L62.3362 61.7727C62.8351 61.9515 63.3759 61.9723 63.8867 61.8321C64.3975 61.692 64.8541 61.3976 65.1959 60.9881L65.3426 60.8146C68.1778 57.4202 70.3532 53.5963 71.8278 49.4421L71.9012 49.2273C72.2515 48.2032 71.95 47.0552 71.1272 46.3367ZM37.5358 50.6479C29.6248 50.6479 23.2128 44.1481 23.2128 36.1287C23.2128 28.1093 29.6248 21.6095 37.5358 21.6095C45.4468 21.6095 51.8588 28.1093 51.8588 36.1287C51.8588 44.1481 45.4468 50.6479 37.5358 50.6479Z" fill="currentColor"/>
    <g clip-path="url(#clip0_341_398)">
        <rect width="42" height="33" transform="translate(17 21)" fill="currentColor"/>
        <path d="M27.5 30.2812H22.25C21.5538 30.2812 20.8861 30.4985 20.3938 30.8853C19.9016 31.2721 19.625 31.7967 19.625 32.3438V44.7188H22.25V39.5625H27.5V44.7188H30.125V32.3438C30.125 31.7967 29.8484 31.2721 29.3562 30.8853C28.8639 30.4985 28.1962 30.2812 27.5 30.2812ZM22.25 37.5V32.3438H27.5V37.5H22.25Z" fill="#D8D4C0"/>
        <path d="M45.875 32.3438H49.8125V42.6562H45.875V44.7188H56.375V42.6562H52.4375V32.3438H56.375V30.2812H45.875V32.3438Z" fill="#D8D4C0"/>
        <path d="M35.375 44.7188H32.75V30.2812H40.625C41.3212 30.2812 41.9889 30.4985 42.4812 30.8853C42.9734 31.2721 43.25 31.7967 43.25 32.3438V37.5C43.25 38.047 42.9734 38.5716 42.4812 38.9584C41.9889 39.3452 41.3212 39.5625 40.625 39.5625H35.375V44.7188ZM35.375 37.5H40.625V32.3438H35.375V37.5Z" fill="#D8D4C0"/>
    </g>
    <defs>
        <clipPath id="clip0_341_398">
            <rect width="42" height="33" fill="white" transform="translate(17 21)"/>
        </clipPath>
    </defs>
</svg>
