<svg width="81" height="112" viewBox="0 0 81 112" fill="none" xmlns="http://www.w3.org/2000/svg">
<path d="M79.091 36.4375L44.1715 1.50836C43.2048 0.542526 41.8943 0 40.5278 0C39.1613 0 37.8507 0.542526 36.884 1.50836L29.6234 8.76384L38.8233 17.964C43.6554 16.3318 48.2304 20.9587 46.5715 25.7641L55.4393 34.6321C61.5518 32.525 66.3643 40.1679 61.7732 44.7555C57.0429 49.486 49.2358 44.243 51.7733 38.0875L43.4965 29.8213V51.5806C48.0144 53.82 47.4715 59.054 45.1179 61.4022C43.968 62.5515 42.4089 63.1971 40.7831 63.1971C39.1574 63.1971 37.5982 62.5515 36.4483 61.4022C33.3108 58.2593 34.4715 53.0253 38.4572 51.4021V29.4374C34.743 27.9177 34.0644 23.948 35.1287 21.4016L26.0591 12.321L2.10916 36.275C1.14291 37.2415 0.600098 38.5522 0.600098 39.9188C0.600098 41.2855 1.14291 42.5962 2.10916 43.5626L37.0394 78.4918C38.0058 79.4575 39.3161 80 40.6822 80C42.0484 80 43.3587 79.4575 44.3251 78.4918L79.091 43.7251C80.0573 42.7587 80.6001 41.448 80.6001 40.0813C80.6001 38.7147 80.0573 37.404 79.091 36.4375Z" fill="#264653"/>
<path d="M34.2965 99.728H38.6165V105.536C38.0085 105.739 37.3845 105.893 36.7445 106C36.1045 106.107 35.3792 106.16 34.5685 106.16C33.4165 106.16 32.4405 105.931 31.6405 105.472C30.8405 105.013 30.2325 104.347 29.8165 103.472C29.4005 102.597 29.1925 101.531 29.1925 100.272C29.1925 99.0773 29.4272 98.0427 29.8965 97.168C30.3659 96.2933 31.0379 95.616 31.9125 95.136C32.7979 94.656 33.8752 94.416 35.1445 94.416C35.7632 94.416 36.3605 94.48 36.9365 94.608C37.5232 94.7253 38.0565 94.8907 38.5365 95.104L37.8325 96.784C37.4699 96.6027 37.0485 96.4533 36.5685 96.336C36.0992 96.208 35.6085 96.144 35.0965 96.144C34.3179 96.144 33.6459 96.3147 33.0805 96.656C32.5152 96.9973 32.0779 97.4827 31.7685 98.112C31.4699 98.7307 31.3205 99.4613 31.3205 100.304C31.3205 101.115 31.4379 101.835 31.6725 102.464C31.9072 103.083 32.2805 103.568 32.7925 103.92C33.3045 104.261 33.9712 104.432 34.7925 104.432C35.0699 104.432 35.3099 104.421 35.5125 104.4C35.7259 104.379 35.9179 104.352 36.0885 104.32C36.2699 104.288 36.4405 104.256 36.6005 104.224V101.472H34.2965V99.728ZM44.1699 97.328V106H42.1539V97.328H44.1699ZM43.1619 93.984C43.4606 93.984 43.7219 94.064 43.9459 94.224C44.1699 94.3733 44.2819 94.6453 44.2819 95.04C44.2819 95.424 44.1699 95.7013 43.9459 95.872C43.7219 96.032 43.4606 96.112 43.1619 96.112C42.8526 96.112 42.5859 96.032 42.3619 95.872C42.1486 95.7013 42.0419 95.424 42.0419 95.04C42.0419 94.6453 42.1486 94.3733 42.3619 94.224C42.5859 94.064 42.8526 93.984 43.1619 93.984ZM51.1077 104.544C51.3637 104.544 51.609 104.523 51.8437 104.48C52.0783 104.427 52.297 104.368 52.4997 104.304V105.808C52.2863 105.904 52.009 105.984 51.6677 106.048C51.3263 106.123 50.969 106.16 50.5957 106.16C50.105 106.16 49.657 106.08 49.2517 105.92C48.857 105.749 48.537 105.461 48.2917 105.056C48.057 104.651 47.9397 104.085 47.9397 103.36V98.848H46.7717V97.968L48.0517 97.264L48.6917 95.424H49.9557V97.328H52.4197V98.848H49.9557V103.344C49.9557 103.749 50.0623 104.053 50.2757 104.256C50.489 104.448 50.7663 104.544 51.1077 104.544Z" fill="black"/>
</svg>
