<svg width="100" height="112" viewBox="0 0 93 112" fill="none" xmlns="http://www.w3.org/2000/svg">
<g clip-path="url(#clip0_87_749)">
<path d="M6.3999 0V80H86.3999V0H6.3999ZM49.9356 62.3929C49.9356 70.1786 45.3642 73.7321 38.7035 73.7321C32.6856 73.7321 29.2035 70.625 27.4178 66.8571L33.5428 63.1607C34.7213 65.25 35.7928 67.0179 38.382 67.0179C40.8463 67.0179 42.4178 66.0536 42.4178 62.2857V36.7321H49.9356V62.3929ZM67.7213 73.7321C60.7392 73.7321 56.2213 70.4107 54.0249 66.0536L60.1499 62.5179C61.757 65.1429 63.8642 67.0893 67.5606 67.0893C70.6678 67.0893 72.6678 65.5357 72.6678 63.375C72.6678 60.8036 70.632 59.8929 67.1856 58.375L65.3106 57.5714C59.882 55.2679 56.2928 52.3571 56.2928 46.2321C56.2928 40.5893 60.5963 36.3036 67.2928 36.3036C72.0785 36.3036 75.507 37.9643 77.9713 42.3214L72.1142 46.0714C70.8285 43.7679 69.4356 42.8571 67.2749 42.8571C65.0785 42.8571 63.6856 44.25 63.6856 46.0714C63.6856 48.3214 65.0785 49.2321 68.3106 50.6429L70.1856 51.4464C76.5785 54.1786 80.1678 56.9821 80.1678 63.2679C80.1678 70.0179 74.8463 73.7321 67.7213 73.7321Z" fill="#264653"/>
<path d="M0.731027 109.232C0.432361 109.232 0.176361 109.211 -0.0369727 109.168C-0.250306 109.136 -0.442306 109.099 -0.612973 109.056V107.344C-0.442306 107.387 -0.260973 107.424 -0.0689727 107.456C0.123027 107.488 0.325694 107.504 0.539027 107.504C0.805694 107.504 1.05636 107.451 1.29103 107.344C1.52569 107.237 1.71236 107.04 1.85103 106.752C1.98969 106.464 2.05903 106.053 2.05903 105.52V94.576H4.10703V105.472C4.10703 106.368 3.96303 107.088 3.67503 107.632C3.39769 108.187 3.00303 108.592 2.49103 108.848C1.98969 109.104 1.40303 109.232 0.731027 109.232ZM11.2925 97.168C12.4125 97.168 13.2605 97.4133 13.8365 97.904C14.4232 98.384 14.7165 99.1413 14.7165 100.176V106H13.2925L12.8925 104.8H12.8285C12.5832 105.109 12.3272 105.371 12.0605 105.584C11.8045 105.787 11.5059 105.931 11.1645 106.016C10.8339 106.112 10.4285 106.16 9.94853 106.16C9.43653 106.16 8.97253 106.064 8.55653 105.872C8.15119 105.68 7.83119 105.387 7.59653 104.992C7.36186 104.587 7.24453 104.08 7.24453 103.472C7.24453 102.576 7.56986 101.904 8.22053 101.456C8.88186 100.997 9.87919 100.747 11.2125 100.704L12.7165 100.656V100.224C12.7165 99.6693 12.5832 99.2747 12.3165 99.04C12.0499 98.8053 11.6765 98.688 11.1965 98.688C10.7592 98.688 10.3379 98.752 9.93253 98.88C9.52719 99.008 9.13253 99.1573 8.74853 99.328L8.10853 97.92C8.53519 97.696 9.02053 97.5147 9.56453 97.376C10.1192 97.2373 10.6952 97.168 11.2925 97.168ZM11.6605 101.936C10.7752 101.968 10.1619 102.123 9.82053 102.4C9.47919 102.667 9.30853 103.029 9.30853 103.488C9.30853 103.893 9.43119 104.187 9.67653 104.368C9.92186 104.549 10.2365 104.64 10.6205 104.64C11.2072 104.64 11.7032 104.475 12.1085 104.144C12.5139 103.803 12.7165 103.301 12.7165 102.64V101.904L11.6605 101.936ZM20.2428 106L16.9468 97.328H19.0748L20.8028 102.336C20.8774 102.539 20.9468 102.763 21.0108 103.008C21.0748 103.243 21.1281 103.477 21.1708 103.712C21.2241 103.936 21.2561 104.133 21.2668 104.304H21.3308C21.3521 104.123 21.3894 103.92 21.4428 103.696C21.4961 103.461 21.5548 103.227 21.6188 102.992C21.6934 102.757 21.7628 102.539 21.8268 102.336L23.5548 97.328H25.6828L22.3868 106H20.2428ZM31.4332 97.168C32.5532 97.168 33.4012 97.4133 33.9772 97.904C34.5638 98.384 34.8572 99.1413 34.8572 100.176V106H33.4332L33.0332 104.8H32.9692C32.7238 105.109 32.4678 105.371 32.2012 105.584C31.9452 105.787 31.6465 105.931 31.3052 106.016C30.9745 106.112 30.5692 106.16 30.0892 106.16C29.5772 106.16 29.1132 106.064 28.6972 105.872C28.2918 105.68 27.9718 105.387 27.7372 104.992C27.5025 104.587 27.3852 104.08 27.3852 103.472C27.3852 102.576 27.7105 101.904 28.3612 101.456C29.0225 100.997 30.0198 100.747 31.3532 100.704L32.8572 100.656V100.224C32.8572 99.6693 32.7238 99.2747 32.4572 99.04C32.1905 98.8053 31.8172 98.688 31.3372 98.688C30.8998 98.688 30.4785 98.752 30.0732 98.88C29.6678 99.008 29.2732 99.1573 28.8892 99.328L28.2492 97.92C28.6758 97.696 29.1612 97.5147 29.7052 97.376C30.2598 97.2373 30.8358 97.168 31.4332 97.168ZM31.8012 101.936C30.9158 101.968 30.3025 102.123 29.9612 102.4C29.6198 102.667 29.4492 103.029 29.4492 103.488C29.4492 103.893 29.5718 104.187 29.8172 104.368C30.0625 104.549 30.3772 104.64 30.7612 104.64C31.3478 104.64 31.8438 104.475 32.2492 104.144C32.6545 103.803 32.8572 103.301 32.8572 102.64V101.904L31.8012 101.936ZM50.3717 102.88C50.3717 103.552 50.2063 104.133 49.8757 104.624C49.545 105.115 49.065 105.493 48.4357 105.76C47.817 106.027 47.0757 106.16 46.2117 106.16C45.7957 106.16 45.3957 106.133 45.0117 106.08C44.6383 106.037 44.281 105.968 43.9397 105.872C43.609 105.776 43.2997 105.659 43.0117 105.52V103.6C43.4917 103.813 44.0197 104.011 44.5957 104.192C45.1717 104.363 45.7583 104.448 46.3557 104.448C46.8143 104.448 47.1877 104.389 47.4757 104.272C47.7743 104.144 47.993 103.973 48.1317 103.76C48.2703 103.536 48.3397 103.28 48.3397 102.992C48.3397 102.672 48.249 102.4 48.0677 102.176C47.8863 101.952 47.6197 101.744 47.2677 101.552C46.9157 101.36 46.4783 101.157 45.9557 100.944C45.6037 100.795 45.257 100.629 44.9157 100.448C44.585 100.256 44.2863 100.027 44.0197 99.76C43.753 99.4933 43.5397 99.1787 43.3797 98.816C43.2197 98.4533 43.1397 98.0267 43.1397 97.536C43.1397 96.8853 43.2943 96.3253 43.6037 95.856C43.9237 95.3867 44.3663 95.0293 44.9317 94.784C45.5077 94.5387 46.1743 94.416 46.9317 94.416C47.5397 94.416 48.1103 94.48 48.6437 94.608C49.177 94.736 49.705 94.9173 50.2277 95.152L49.5717 96.8C49.1023 96.5973 48.649 96.4373 48.2117 96.32C47.7743 96.2027 47.3263 96.144 46.8677 96.144C46.505 96.144 46.1957 96.2027 45.9397 96.32C45.6837 96.4267 45.4917 96.5813 45.3637 96.784C45.2357 96.9867 45.1717 97.2213 45.1717 97.488C45.1717 97.7973 45.2517 98.0587 45.4117 98.272C45.5717 98.4853 45.817 98.688 46.1477 98.88C46.489 99.0613 46.9263 99.2693 47.4597 99.504C48.0783 99.7707 48.601 100.048 49.0277 100.336C49.4543 100.624 49.785 100.971 50.0197 101.376C50.2543 101.781 50.3717 102.283 50.3717 102.88ZM56.8405 106.16C56.0192 106.16 55.3045 106.005 54.6965 105.696C54.0992 105.376 53.6352 104.891 53.3045 104.24C52.9845 103.579 52.8245 102.736 52.8245 101.712C52.8245 100.645 53.0005 99.7813 53.3525 99.12C53.7152 98.448 54.2112 97.9573 54.8405 97.648C55.4699 97.328 56.1899 97.168 57.0005 97.168C57.5445 97.168 58.0299 97.2213 58.4565 97.328C58.8832 97.4347 59.2459 97.5627 59.5445 97.712L58.9525 99.296C58.6219 99.168 58.2912 99.0613 57.9605 98.976C57.6299 98.88 57.3099 98.832 57.0005 98.832C56.5205 98.832 56.1205 98.9387 55.8005 99.152C55.4912 99.3653 55.2619 99.6853 55.1125 100.112C54.9632 100.528 54.8885 101.056 54.8885 101.696C54.8885 102.315 54.9632 102.832 55.1125 103.248C55.2725 103.664 55.5072 103.979 55.8165 104.192C56.1259 104.395 56.5099 104.496 56.9685 104.496C57.4592 104.496 57.8912 104.437 58.2645 104.32C58.6379 104.203 58.9899 104.043 59.3205 103.84V105.584C58.9899 105.787 58.6325 105.931 58.2485 106.016C57.8752 106.112 57.4059 106.16 56.8405 106.16ZM66.8962 97.168C67.0242 97.168 67.1735 97.1733 67.3442 97.184C67.5148 97.1947 67.6588 97.216 67.7762 97.248L67.6002 99.12C67.5042 99.0987 67.3762 99.0827 67.2162 99.072C67.0668 99.0507 66.9335 99.04 66.8162 99.04C66.4962 99.04 66.1868 99.0933 65.8882 99.2C65.6002 99.296 65.3388 99.4453 65.1042 99.648C64.8802 99.84 64.6988 100.091 64.5602 100.4C64.4322 100.709 64.3682 101.077 64.3682 101.504V106H62.3522V97.328H63.9042L64.1922 98.832H64.2882C64.4588 98.5227 64.6722 98.2453 64.9282 98C65.1842 97.744 65.4775 97.5413 65.8082 97.392C66.1495 97.2427 66.5122 97.168 66.8962 97.168ZM72.3994 97.328V106H70.3834V97.328H72.3994ZM71.3914 93.984C71.6901 93.984 71.9514 94.064 72.1754 94.224C72.3994 94.3733 72.5114 94.6453 72.5114 95.04C72.5114 95.424 72.3994 95.7013 72.1754 95.872C71.9514 96.032 71.6901 96.112 71.3914 96.112C71.0821 96.112 70.8154 96.032 70.5914 95.872C70.3781 95.7013 70.2714 95.424 70.2714 95.04C70.2714 94.6453 70.3781 94.3733 70.5914 94.224C70.8154 94.064 71.0821 93.984 71.3914 93.984ZM80.5372 97.168C81.5505 97.168 82.3665 97.5467 82.9852 98.304C83.6038 99.0507 83.9132 100.165 83.9132 101.648C83.9132 102.629 83.7692 103.456 83.4812 104.128C83.1932 104.8 82.7932 105.307 82.2812 105.648C81.7692 105.989 81.1718 106.16 80.4892 106.16C80.0732 106.16 79.7052 106.107 79.3852 106C79.0652 105.883 78.7932 105.739 78.5692 105.568C78.3452 105.387 78.1532 105.195 77.9932 104.992H77.8652C77.9078 105.184 77.9398 105.403 77.9612 105.648C77.9825 105.883 77.9932 106.107 77.9932 106.32V109.84H75.9772V97.328H77.6092L77.8972 98.48H77.9932C78.1532 98.2347 78.3452 98.016 78.5692 97.824C78.8038 97.6213 79.0812 97.4613 79.4012 97.344C79.7318 97.2267 80.1105 97.168 80.5372 97.168ZM79.9612 98.8C79.4918 98.8 79.1132 98.896 78.8252 99.088C78.5372 99.2693 78.3292 99.552 78.2012 99.936C78.0732 100.32 78.0038 100.8 77.9932 101.376V101.632C77.9932 102.251 78.0518 102.773 78.1692 103.2C78.2972 103.627 78.5052 103.952 78.7932 104.176C79.0918 104.4 79.4918 104.512 79.9932 104.512C80.4198 104.512 80.7665 104.395 81.0332 104.16C81.3105 103.925 81.5132 103.595 81.6412 103.168C81.7798 102.731 81.8492 102.213 81.8492 101.616C81.8492 100.72 81.6945 100.027 81.3852 99.536C81.0865 99.0453 80.6118 98.8 79.9612 98.8ZM90.3528 104.544C90.6088 104.544 90.8541 104.523 91.0888 104.48C91.3234 104.427 91.5421 104.368 91.7448 104.304V105.808C91.5314 105.904 91.2541 105.984 90.9128 106.048C90.5714 106.123 90.2141 106.16 89.8408 106.16C89.3501 106.16 88.9021 106.08 88.4968 105.92C88.1021 105.749 87.7821 105.461 87.5368 105.056C87.3021 104.651 87.1848 104.085 87.1848 103.36V98.848H86.0168V97.968L87.2968 97.264L87.9368 95.424H89.2008V97.328H91.6648V98.848H89.2008V103.344C89.2008 103.749 89.3074 104.053 89.5208 104.256C89.7341 104.448 90.0114 104.544 90.3528 104.544Z" fill="black"/>
</g>
<defs>
<clipPath id="clip0_87_749">
<rect width="92" height="112" fill="white" transform="translate(0.399902)"/>
</clipPath>
</defs>
</svg>
