<svg width="81" height="114" viewBox="0 0 81 114" fill="none" xmlns="http://www.w3.org/2000/svg">
<g clip-path="url(#clip0_87_755)">
<path d="M65.5437 26.925C64.7 26.6035 63.8562 26.3 63.0125 26.0143C63.1531 25.3536 63.2781 24.6929 63.4031 24.0322C65.325 13.39 64.0593 4.83685 59.7937 2.01557C55.6843 -0.680715 48.9812 2.12271 42.2 8.87235C41.5281 9.53303 40.8718 10.2294 40.2468 10.9258C39.8249 10.4615 39.3875 9.99729 38.95 9.55088C31.8406 2.33698 24.7156 -0.698571 20.45 2.14056C16.3562 4.8547 15.1375 12.9078 16.8562 22.9787C17.0281 23.9787 17.2156 24.9608 17.4343 25.9607C16.4343 26.2821 15.45 26.6393 14.5281 27.0142C6.18433 30.3176 0.199951 35.5316 0.199951 40.9242C0.199951 46.4953 6.57495 52.0843 15.2468 55.477C15.95 55.7448 16.6531 56.0127 17.3718 56.2448C17.1375 57.3162 16.9343 58.3697 16.7468 59.4589C15.1062 69.3691 16.3875 77.2258 20.4812 79.9221C24.7 82.7077 31.7937 79.8507 38.7 72.9404C39.2468 72.3868 39.7937 71.8154 40.3406 71.2083C41.0281 71.9761 41.7468 72.7082 42.4656 73.4225C49.1531 79.9936 55.7625 82.6541 59.8406 79.9578C64.0593 77.1723 65.4343 68.7263 63.6531 58.4411C63.5125 57.6555 63.3562 56.8519 63.1843 56.0305C63.6843 55.8698 64.1687 55.6913 64.6531 55.5127C73.6687 52.1022 80.2 46.5846 80.2 40.9242C80.2 35.5138 74.0437 30.2641 65.5437 26.925ZM44.4031 11.765C50.2156 5.97964 55.6375 3.71191 58.1062 5.33682C60.7468 7.06887 61.7625 14.0685 60.1062 23.2644C59.9968 23.8715 59.8875 24.4608 59.7468 25.0501C56.2781 24.1572 52.7625 23.5144 49.2312 23.1573C47.2 19.836 44.9812 16.6576 42.575 13.6757C43.1843 13.015 43.7781 12.39 44.4031 11.765ZM26.325 50.1916C27.1218 51.7451 27.9343 53.2985 28.7937 54.8163C26.3562 54.5128 23.9343 54.0664 21.5437 53.4771C22.2312 50.9058 23.0906 48.2452 24.0906 45.5311C24.8093 47.1024 25.5437 48.6559 26.325 50.1916ZM21.5906 28.7106C23.8406 28.1392 26.2312 27.6749 28.7156 27.3178C27.8875 28.7999 27.075 30.3176 26.3093 31.8533C25.5437 33.371 24.7937 34.9245 24.0906 36.4959C23.1062 33.8353 22.2781 31.2283 21.5906 28.7106ZM25.8718 41.0135C26.9031 38.5493 28.0281 36.1387 29.2156 33.7639C30.4031 31.389 31.6843 29.0856 33.0281 26.8178C35.3718 26.6214 37.7625 26.5143 40.2 26.5143C42.6375 26.5143 45.0437 26.6214 47.3718 26.8178C48.7 29.0677 49.9656 31.3711 51.1687 33.7282C52.3718 36.0852 53.4968 38.4958 54.5593 40.9421C53.5125 43.4062 52.3874 45.8347 51.1843 48.2274C49.9968 50.6023 48.7312 52.9057 47.4031 55.1913C45.075 55.3877 42.6531 55.477 40.2 55.477C37.7468 55.477 35.3718 55.3877 33.075 55.227C31.7156 52.9593 30.4343 50.638 29.2312 48.2631C28.0281 45.8882 26.9187 43.4776 25.8718 41.0135ZM54.0906 50.1559C54.8875 48.5845 55.6375 46.9953 56.3718 45.3883C57.3718 47.9774 58.2468 50.6023 59.0125 53.2985C56.5906 53.9235 54.1375 54.4056 51.6687 54.727C52.5125 53.2271 53.3093 51.6915 54.0906 50.1559ZM56.3406 36.4959C55.6062 34.9245 54.8562 33.3532 54.075 31.8176C53.3093 30.2998 52.5125 28.7999 51.6843 27.3178C54.2 27.6749 56.6062 28.157 58.8562 28.7463C58.1375 31.389 57.2937 33.9603 56.3406 36.4959ZM40.2312 16.4077C41.8718 18.4433 43.4187 20.586 44.8562 22.8002C41.7625 22.6395 38.6531 22.6395 35.5593 22.8002C37.0906 20.4967 38.6687 18.354 40.2312 16.4077ZM22.1062 5.46181C24.7312 3.71191 30.5593 6.21177 36.7 12.4257C37.0906 12.8186 37.4812 13.2471 37.8875 13.6757C35.4656 16.6576 33.2312 19.836 31.1843 23.1573C27.6531 23.5144 24.1531 24.1394 20.6843 25.0143C20.4812 24.1037 20.3093 23.1752 20.1375 22.2466C18.6687 13.6042 19.6375 7.08673 22.1062 5.46181ZM18.2781 52.5307C17.6218 52.3165 16.9812 52.0843 16.3406 51.8343C13.0125 50.638 9.2312 48.7452 6.49683 46.2632C4.9187 45.0133 3.8562 43.0848 3.55933 40.9242C3.55933 37.6565 8.49683 33.4782 15.6218 30.639C16.5125 30.2819 17.4187 29.9605 18.325 29.6569C19.3875 33.5317 20.6687 37.3351 22.1531 41.0135C20.6531 44.7454 19.3562 48.6024 18.2781 52.5307ZM36.4968 70.0298C33.9187 72.7261 30.9343 74.8688 27.6843 76.333C25.9499 77.2794 23.95 77.3687 22.1687 76.5652C19.6843 74.9224 18.6531 68.6192 20.0593 60.1375C20.2312 59.1375 20.4187 58.1376 20.6375 57.1555C24.1375 58.0126 27.6687 58.6018 31.2468 58.9054C33.3093 62.2445 35.575 65.4408 37.9968 68.4406C37.4968 68.9941 36.9968 69.5298 36.4968 70.0298ZM40.325 65.6907C38.7312 63.7266 37.1375 61.5481 35.5906 59.2089C37.0906 59.2804 38.6375 59.3161 40.2 59.3161C41.8093 59.3161 43.3875 59.2804 44.95 59.1911C43.5125 61.4588 41.9656 63.6194 40.325 65.6907ZM60.7468 71.0476C60.6062 73.2261 59.6687 75.2617 58.1687 76.6366C55.6843 78.2794 50.3875 76.1366 44.6687 70.5298C44.0125 69.8869 43.3562 69.1906 42.6843 68.4763C45.075 65.4586 47.2781 62.2623 49.2781 58.9054C52.8562 58.5661 56.4187 57.9412 59.9343 57.0305C60.0906 57.7626 60.2312 58.4947 60.3562 59.2089C61.1218 63.0659 61.2468 67.0835 60.7468 71.0476ZM63.5906 51.8522C63.1531 52.0129 62.7156 52.1736 62.2625 52.3165C61.1687 48.4238 59.825 44.6204 58.2781 40.9242C59.7781 37.2815 61.0437 33.5317 62.1062 29.6927C62.9187 29.9605 63.7 30.2462 64.45 30.5319C71.7312 33.3889 76.8406 37.6387 76.8406 40.8885C76.8406 44.3883 71.3875 48.9059 63.5906 51.8522ZM40.2 49.1738C44.1531 49.1738 47.3562 45.5132 47.3562 40.9956C47.3562 36.478 44.1531 32.8175 40.2 32.8175C36.2468 32.8175 33.0437 36.478 33.0437 40.9956C33.0437 45.5132 36.2468 49.1738 40.2 49.1738Z" fill="#264653"/>
<path d="M21.1547 95.576C22.1574 95.576 22.984 95.6987 23.6347 95.944C24.2854 96.1893 24.7707 96.5627 25.0907 97.064C25.4107 97.5547 25.5707 98.1787 25.5707 98.936C25.5707 99.4907 25.464 99.9653 25.2507 100.36C25.048 100.755 24.7814 101.085 24.4507 101.352C24.12 101.608 23.7627 101.816 23.3787 101.976L26.6587 107H24.3547L21.6187 102.488H19.9547V107H17.9067V95.576H21.1547ZM21.0267 97.288H19.9547V100.808H21.0907C21.656 100.808 22.1147 100.739 22.4667 100.6C22.8187 100.461 23.0747 100.259 23.2347 99.992C23.4054 99.7253 23.4907 99.3947 23.4907 99C23.4907 98.584 23.4 98.2533 23.2187 98.008C23.0374 97.752 22.7654 97.5707 22.4027 97.464C22.0507 97.3467 21.592 97.288 21.0267 97.288ZM32.5465 98.168C33.3251 98.168 33.9918 98.328 34.5465 98.648C35.1118 98.9573 35.5491 99.4053 35.8585 99.992C36.1678 100.568 36.3225 101.272 36.3225 102.104V103.128H30.5945C30.6158 103.917 30.8345 104.531 31.2505 104.968C31.6665 105.395 32.2425 105.608 32.9785 105.608C33.5438 105.608 34.0451 105.555 34.4825 105.448C34.9305 105.331 35.3891 105.165 35.8585 104.952V106.568C35.4318 106.771 34.9891 106.92 34.5305 107.016C34.0718 107.112 33.5225 107.16 32.8825 107.16C32.0398 107.16 31.2878 107 30.6265 106.68C29.9758 106.349 29.4638 105.853 29.0905 105.192C28.7278 104.531 28.5465 103.709 28.5465 102.728C28.5465 101.736 28.7118 100.904 29.0425 100.232C29.3838 99.5493 29.8531 99.0373 30.4505 98.696C31.0478 98.344 31.7465 98.168 32.5465 98.168ZM32.5465 99.656C32.0131 99.656 31.5758 99.832 31.2345 100.184C30.9038 100.525 30.7065 101.037 30.6425 101.72H34.3705C34.3705 101.315 34.3011 100.957 34.1625 100.648C34.0345 100.339 33.8371 100.099 33.5705 99.928C33.3038 99.7467 32.9625 99.656 32.5465 99.656ZM42.8113 98.168C43.9313 98.168 44.7793 98.4133 45.3553 98.904C45.942 99.384 46.2353 100.141 46.2353 101.176V107H44.8113L44.4113 105.8H44.3473C44.102 106.109 43.846 106.371 43.5793 106.584C43.3233 106.787 43.0247 106.931 42.6833 107.016C42.3527 107.112 41.9473 107.16 41.4673 107.16C40.9553 107.16 40.4913 107.064 40.0753 106.872C39.67 106.68 39.35 106.387 39.1153 105.992C38.8807 105.587 38.7633 105.08 38.7633 104.472C38.7633 103.576 39.0887 102.904 39.7393 102.456C40.4007 101.997 41.398 101.747 42.7313 101.704L44.2353 101.656V101.224C44.2353 100.669 44.102 100.275 43.8353 100.04C43.5687 99.8053 43.1953 99.688 42.7153 99.688C42.278 99.688 41.8567 99.752 41.4513 99.88C41.046 100.008 40.6513 100.157 40.2673 100.328L39.6273 98.92C40.054 98.696 40.5393 98.5147 41.0833 98.376C41.638 98.2373 42.214 98.168 42.8113 98.168ZM43.1793 102.936C42.294 102.968 41.6807 103.123 41.3393 103.4C40.998 103.667 40.8273 104.029 40.8273 104.488C40.8273 104.893 40.95 105.187 41.1953 105.368C41.4407 105.549 41.7553 105.64 42.1393 105.64C42.726 105.64 43.222 105.475 43.6273 105.144C44.0327 104.803 44.2353 104.301 44.2353 103.64V102.904L43.1793 102.936ZM53.2656 107.16C52.4442 107.16 51.7296 107.005 51.1216 106.696C50.5242 106.376 50.0602 105.891 49.7296 105.24C49.4096 104.579 49.2496 103.736 49.2496 102.712C49.2496 101.645 49.4256 100.781 49.7776 100.12C50.1402 99.448 50.6362 98.9573 51.2656 98.648C51.8949 98.328 52.6149 98.168 53.4256 98.168C53.9696 98.168 54.4549 98.2213 54.8816 98.328C55.3082 98.4347 55.6709 98.5627 55.9696 98.712L55.3776 100.296C55.0469 100.168 54.7162 100.061 54.3856 99.976C54.0549 99.88 53.7349 99.832 53.4256 99.832C52.9456 99.832 52.5456 99.9387 52.2256 100.152C51.9162 100.365 51.6869 100.685 51.5376 101.112C51.3882 101.528 51.3136 102.056 51.3136 102.696C51.3136 103.315 51.3882 103.832 51.5376 104.248C51.6976 104.664 51.9322 104.979 52.2416 105.192C52.5509 105.395 52.9349 105.496 53.3936 105.496C53.8842 105.496 54.3162 105.437 54.6896 105.32C55.0629 105.203 55.4149 105.043 55.7456 104.84V106.584C55.4149 106.787 55.0576 106.931 54.6736 107.016C54.3002 107.112 53.8309 107.16 53.2656 107.16ZM62.1372 105.544C62.3932 105.544 62.6385 105.523 62.8732 105.48C63.1079 105.427 63.3265 105.368 63.5292 105.304V106.808C63.3159 106.904 63.0385 106.984 62.6972 107.048C62.3559 107.123 61.9985 107.16 61.6252 107.16C61.1345 107.16 60.6865 107.08 60.2812 106.92C59.8865 106.749 59.5665 106.461 59.3212 106.056C59.0865 105.651 58.9692 105.085 58.9692 104.36V99.848H57.8012V98.968L59.0812 98.264L59.7212 96.424H60.9852V98.328H63.4492V99.848H60.9852V104.344C60.9852 104.749 61.0919 105.053 61.3052 105.256C61.5185 105.448 61.7959 105.544 62.1372 105.544Z" fill="black"/>
</g>
<defs>
<clipPath id="clip0_87_755">
<rect width="80" height="114" fill="white" transform="translate(0.199951)"/>
</clipPath>
</defs>
</svg>
