<svg width="100" height="112" viewBox="0 0 81 112" fill="none" xmlns="http://www.w3.org/2000/svg">
<g clip-path="url(#clip0_87_752)">
<path d="M38.53 60.481C38.455 60.661 38.4925 60.581 38.53 60.481V60.481ZM69.6717 45.9822C67.1575 45.9811 64.6769 46.7509 62.4216 48.232C61.6841 46.2489 60.9216 44.5157 60.7966 43.2158C60.6466 41.6992 60.4841 40.7993 60.659 38.9994C60.8341 37.1996 61.6216 34.6498 61.6091 34.4665C61.5966 34.2832 61.4341 33.3666 59.8215 33.3499C58.209 33.3332 56.8215 33.7665 56.6603 34.3332C56.3755 35.3687 56.1539 36.4331 55.9977 37.5162C55.7102 39.4661 52.774 46.4322 51.1114 50.0652C50.5614 48.6487 50.0989 47.3988 49.9989 46.3988C49.8489 44.8823 49.6864 43.9824 49.8614 42.1825C50.0364 40.3827 50.8239 37.8329 50.8114 37.6496C50.7989 37.4662 50.6364 36.5496 49.0252 36.533C47.4139 36.5163 46.0251 36.9496 45.8626 37.5162C45.7001 38.0829 45.5251 39.4161 45.2001 40.6993C44.8751 41.9825 40.9638 53.5816 39.9401 56.598C39.4151 58.1312 38.965 59.3645 38.64 60.1977C38.59 60.331 38.5525 60.4144 38.5275 60.481C38.565 60.3977 38.59 60.3144 38.59 60.3477C38.315 61.0643 38.1525 61.4643 38.1525 61.4643V61.4809C37.94 62.0142 37.7025 62.4975 37.59 62.4975C37.515 62.4975 37.3525 61.0976 37.6275 59.1811C38.215 55.1481 39.6026 48.882 39.5901 48.6653C39.5776 48.5487 39.8526 47.4654 38.6775 46.8821C37.54 46.3322 37.1275 47.2488 37.0275 47.2488C36.9275 47.2488 36.8525 47.5821 36.8525 47.5821C36.8525 47.5821 38.115 40.516 34.4287 40.516C32.1287 40.516 28.9287 43.8824 27.3562 46.9321C26.3687 47.6487 24.2311 49.1986 21.9811 50.8485C21.1186 51.4818 20.2311 52.1317 19.3936 52.7483C19.3311 52.665 19.2811 52.5817 19.2186 52.4983C14.7448 46.1322 6.48467 41.6326 6.83467 33.0833C6.95968 29.9669 7.77218 21.7842 22.7186 11.8517C34.9688 3.71899 44.7626 5.95214 46.4489 10.9184C48.8739 18.0012 41.2126 31.1834 28.4912 33.0833C23.6424 33.7999 21.0936 31.3001 20.4561 30.3668C19.7936 29.3836 19.6936 29.3336 19.4436 29.5169C19.0311 29.8169 19.2936 30.6835 19.4436 31.2001C19.8186 32.5166 21.3811 34.8498 24.0424 36.0164C26.3799 37.0329 32.065 37.5996 38.9388 34.0499C46.6614 30.0835 52.6727 19.0344 50.9102 9.78516C49.1152 0.385928 37.425 -2.69715 26.3712 2.53575C19.7848 5.65217 12.6622 10.5518 7.53843 16.9346C1.45211 24.534 0.47835 31.1501 0.878354 33.9165C2.30212 43.7324 12.4497 50.1319 16.511 54.8648C16.311 55.0148 16.1235 55.1481 15.9485 55.2815C13.9123 56.6313 6.17592 62.0309 4.23964 67.7304C2.05212 74.1966 4.60215 78.8295 6.27592 79.4628C11.4997 81.396 16.8485 77.9129 19.7223 72.1967C22.5961 66.4805 22.2474 59.0145 20.9223 55.6148C20.9098 55.5648 20.8848 55.5314 20.8723 55.4814C21.3973 55.0648 21.9349 54.6482 22.4724 54.2315C23.5086 53.4149 24.5211 52.665 25.4086 52.0151C24.9086 53.8149 24.5461 55.9814 24.3586 59.1145C24.1336 62.7808 25.2711 67.5305 26.7462 69.397C27.3962 70.2136 28.1824 70.2302 28.6699 70.2302C30.3949 70.2302 31.17 68.3304 32.0312 66.0639C33.0937 63.2975 34.0312 60.0811 34.0312 60.0811C34.0312 60.0811 32.8562 68.7803 36.0688 68.7803C37.2425 68.7803 38.4175 66.7639 38.9438 65.7306V65.7473C38.9438 65.7473 38.9688 65.6806 39.0313 65.5473C39.1563 65.2973 39.2188 65.1473 39.2188 65.1473V65.0973C39.6938 64.0141 40.7313 61.5309 42.2926 57.4313C44.3176 52.1317 46.2539 45.5156 46.2539 45.5156C46.441 46.97 46.6999 48.4063 47.0289 49.8152C47.3789 51.3984 48.1164 53.1316 48.7039 54.8148C48.2289 55.6814 47.9414 56.1814 47.9414 56.1814C47.9423 56.1942 47.9468 56.2061 47.9539 56.2147C47.5789 56.8813 47.1539 57.5979 46.7164 58.2979C45.1176 60.831 43.2163 63.7308 42.9663 64.564C42.6663 65.5473 42.7413 66.2806 43.3163 66.8472C43.7414 67.2805 44.4914 67.3471 45.2776 67.2638C46.7151 67.1305 47.7277 66.6639 48.2152 66.3639C49.1139 65.9342 49.9633 65.3397 50.7389 64.5974C52.3015 63.0642 53.2515 60.8643 53.164 57.9646C53.114 56.3647 52.7265 54.7648 52.2515 53.2649C52.389 52.9983 52.539 52.715 52.6765 52.4317C55.1502 47.6154 57.0628 42.3292 57.0628 42.3292C57.2499 43.7836 57.5088 45.2199 57.8378 46.6288C58.1378 47.9787 58.724 49.4619 59.2615 50.9118C56.9378 53.4283 55.5002 56.3447 55.0002 58.2612C54.0752 61.8109 54.8002 63.4108 56.1628 63.7774C56.7753 63.9441 57.6503 63.5608 58.3003 63.1941C59.2656 62.7655 60.1758 62.1416 60.9991 61.3443C62.5616 59.8111 64.0728 57.6613 63.9728 54.7448C63.9353 53.4283 63.6603 52.1117 63.2978 50.8451C65.2604 49.7452 67.8091 49.1453 71.0592 49.6452C78.0193 50.7285 79.3818 56.528 79.1193 58.9445C78.8568 61.361 77.3942 62.7108 76.9067 63.1108C76.4192 63.5108 76.2692 63.6608 76.3067 63.9607C76.3692 64.394 76.5942 64.3774 77.0068 64.2774C77.5818 64.1441 80.6555 62.3109 80.793 57.8279C80.993 52.1617 76.9067 45.9289 69.6679 45.9789L69.6717 45.9822ZM16.0235 70.0969C13.7248 73.4466 10.4997 74.7132 9.11345 73.6466C7.62593 72.4934 8.21344 67.5638 11.0497 63.9941C12.7747 61.8276 14.9985 59.8278 16.4735 58.5945C16.811 58.3279 17.2985 57.9279 17.8986 57.4446C17.9986 57.3613 18.0486 57.328 18.0486 57.328C18.1611 57.228 18.2861 57.1446 18.4111 57.0446C19.4473 62.1109 18.4486 66.5772 16.0235 70.0936V70.0969ZM32.8187 54.8648C32.0187 57.4813 30.3324 64.1474 29.3074 63.7974C28.4324 63.4975 27.8949 58.4145 29.1324 53.4149C29.7574 50.8985 31.0825 47.8987 31.87 46.7322C33.1312 44.849 34.5187 44.249 34.8438 44.999C35.2813 45.9822 33.3187 53.2316 32.8187 54.8648ZM46.6939 63.6974C46.3564 63.9307 46.0439 64.0807 45.8939 63.9641C45.7814 63.8808 46.0314 63.5641 46.0314 63.5641C46.0314 63.5641 47.7689 61.081 48.4564 59.9477C48.8564 59.2811 49.3189 58.4979 49.8177 57.6313C49.8177 57.7146 49.8302 57.7979 49.8302 57.8979C49.8139 60.881 47.6651 62.8975 46.6901 63.6974H46.6939ZM57.3915 60.4477C57.1415 60.2144 57.179 59.4311 58.0165 56.998C58.3415 56.0481 59.0903 54.4482 60.3915 52.915C60.5388 53.4954 60.6189 54.1023 60.6291 54.7148C60.6166 58.4645 58.604 59.8644 57.3928 60.4477H57.3915Z" fill="#264653"/>
<path d="M29.1546 102.88C29.1546 103.552 28.9893 104.133 28.6586 104.624C28.3279 105.115 27.8479 105.493 27.2186 105.76C26.5999 106.027 25.8586 106.16 24.9946 106.16C24.5786 106.16 24.1786 106.133 23.7946 106.08C23.4213 106.037 23.0639 105.968 22.7226 105.872C22.3919 105.776 22.0826 105.659 21.7946 105.52V103.6C22.2746 103.813 22.8026 104.011 23.3786 104.192C23.9546 104.363 24.5413 104.448 25.1386 104.448C25.5973 104.448 25.9706 104.389 26.2586 104.272C26.5573 104.144 26.7759 103.973 26.9146 103.76C27.0533 103.536 27.1226 103.28 27.1226 102.992C27.1226 102.672 27.0319 102.4 26.8506 102.176C26.6693 101.952 26.4026 101.744 26.0506 101.552C25.6986 101.36 25.2613 101.157 24.7386 100.944C24.3866 100.795 24.0399 100.629 23.6986 100.448C23.3679 100.256 23.0693 100.027 22.8026 99.76C22.5359 99.4933 22.3226 99.1787 22.1626 98.816C22.0026 98.4533 21.9226 98.0267 21.9226 97.536C21.9226 96.8853 22.0773 96.3253 22.3866 95.856C22.7066 95.3867 23.1493 95.0293 23.7146 94.784C24.2906 94.5387 24.9573 94.416 25.7146 94.416C26.3226 94.416 26.8933 94.48 27.4266 94.608C27.9599 94.736 28.4879 94.9173 29.0106 95.152L28.3546 96.8C27.8853 96.5973 27.4319 96.4373 26.9946 96.32C26.5573 96.2027 26.1093 96.144 25.6506 96.144C25.2879 96.144 24.9786 96.2027 24.7226 96.32C24.4666 96.4267 24.2746 96.5813 24.1466 96.784C24.0186 96.9867 23.9546 97.2213 23.9546 97.488C23.9546 97.7973 24.0346 98.0587 24.1946 98.272C24.3546 98.4853 24.5999 98.688 24.9306 98.88C25.2719 99.0613 25.7093 99.2693 26.2426 99.504C26.8613 99.7707 27.3839 100.048 27.8106 100.336C28.2373 100.624 28.5679 100.971 28.8026 101.376C29.0373 101.781 29.1546 102.283 29.1546 102.88ZM37.1755 96.144C36.6528 96.144 36.1888 96.24 35.7835 96.432C35.3782 96.624 35.0315 96.9013 34.7435 97.264C34.4662 97.6267 34.2528 98.064 34.1035 98.576C33.9648 99.088 33.8955 99.664 33.8955 100.304C33.8955 101.168 34.0128 101.909 34.2475 102.528C34.4822 103.136 34.8395 103.605 35.3195 103.936C35.8102 104.267 36.4235 104.432 37.1595 104.432C37.6502 104.432 38.1195 104.384 38.5675 104.288C39.0262 104.181 39.5062 104.043 40.0075 103.872V105.616C39.5382 105.808 39.0635 105.947 38.5835 106.032C38.1142 106.117 37.5702 106.16 36.9515 106.16C35.7782 106.16 34.8075 105.92 34.0395 105.44C33.2715 104.949 32.7008 104.267 32.3275 103.392C31.9542 102.507 31.7675 101.472 31.7675 100.288C31.7675 99.424 31.8848 98.6347 32.1195 97.92C32.3648 97.2053 32.7115 96.5867 33.1595 96.064C33.6182 95.5413 34.1835 95.136 34.8555 94.848C35.5275 94.56 36.3008 94.416 37.1755 94.416C37.7515 94.416 38.3168 94.4853 38.8715 94.624C39.4368 94.752 39.9648 94.9333 40.4555 95.168L39.7515 96.848C39.3462 96.6667 38.9248 96.5067 38.4875 96.368C38.0608 96.2187 37.6235 96.144 37.1755 96.144ZM50.1077 102.88C50.1077 103.552 49.9424 104.133 49.6117 104.624C49.2811 105.115 48.8011 105.493 48.1717 105.76C47.5531 106.027 46.8117 106.16 45.9477 106.16C45.5317 106.16 45.1317 106.133 44.7477 106.08C44.3744 106.037 44.0171 105.968 43.6757 105.872C43.3451 105.776 43.0357 105.659 42.7477 105.52V103.6C43.2277 103.813 43.7557 104.011 44.3317 104.192C44.9077 104.363 45.4944 104.448 46.0917 104.448C46.5504 104.448 46.9237 104.389 47.2117 104.272C47.5104 104.144 47.7291 103.973 47.8677 103.76C48.0064 103.536 48.0757 103.28 48.0757 102.992C48.0757 102.672 47.9851 102.4 47.8037 102.176C47.6224 101.952 47.3557 101.744 47.0037 101.552C46.6517 101.36 46.2144 101.157 45.6917 100.944C45.3397 100.795 44.9931 100.629 44.6517 100.448C44.3211 100.256 44.0224 100.027 43.7557 99.76C43.4891 99.4933 43.2757 99.1787 43.1157 98.816C42.9557 98.4533 42.8757 98.0267 42.8757 97.536C42.8757 96.8853 43.0304 96.3253 43.3397 95.856C43.6597 95.3867 44.1024 95.0293 44.6677 94.784C45.2437 94.5387 45.9104 94.416 46.6677 94.416C47.2757 94.416 47.8464 94.48 48.3797 94.608C48.9131 94.736 49.4411 94.9173 49.9637 95.152L49.3077 96.8C48.8384 96.5973 48.3851 96.4373 47.9477 96.32C47.5104 96.2027 47.0624 96.144 46.6037 96.144C46.2411 96.144 45.9317 96.2027 45.6757 96.32C45.4197 96.4267 45.2277 96.5813 45.0997 96.784C44.9717 96.9867 44.9077 97.2213 44.9077 97.488C44.9077 97.7973 44.9877 98.0587 45.1477 98.272C45.3077 98.4853 45.5531 98.688 45.8837 98.88C46.2251 99.0613 46.6624 99.2693 47.1957 99.504C47.8144 99.7707 48.3371 100.048 48.7637 100.336C49.1904 100.624 49.5211 100.971 49.7557 101.376C49.9904 101.781 50.1077 102.283 50.1077 102.88ZM59.9046 102.88C59.9046 103.552 59.7393 104.133 59.4086 104.624C59.0779 105.115 58.5979 105.493 57.9686 105.76C57.3499 106.027 56.6086 106.16 55.7446 106.16C55.3286 106.16 54.9286 106.133 54.5446 106.08C54.1713 106.037 53.8139 105.968 53.4726 105.872C53.1419 105.776 52.8326 105.659 52.5446 105.52V103.6C53.0246 103.813 53.5526 104.011 54.1286 104.192C54.7046 104.363 55.2913 104.448 55.8886 104.448C56.3473 104.448 56.7206 104.389 57.0086 104.272C57.3073 104.144 57.5259 103.973 57.6646 103.76C57.8033 103.536 57.8726 103.28 57.8726 102.992C57.8726 102.672 57.7819 102.4 57.6006 102.176C57.4193 101.952 57.1526 101.744 56.8006 101.552C56.4486 101.36 56.0113 101.157 55.4886 100.944C55.1366 100.795 54.7899 100.629 54.4486 100.448C54.1179 100.256 53.8193 100.027 53.5526 99.76C53.2859 99.4933 53.0726 99.1787 52.9126 98.816C52.7526 98.4533 52.6726 98.0267 52.6726 97.536C52.6726 96.8853 52.8273 96.3253 53.1366 95.856C53.4566 95.3867 53.8993 95.0293 54.4646 94.784C55.0406 94.5387 55.7073 94.416 56.4646 94.416C57.0726 94.416 57.6433 94.48 58.1766 94.608C58.7099 94.736 59.2379 94.9173 59.7606 95.152L59.1046 96.8C58.6353 96.5973 58.1819 96.4373 57.7446 96.32C57.3073 96.2027 56.8593 96.144 56.4006 96.144C56.0379 96.144 55.7286 96.2027 55.4726 96.32C55.2166 96.4267 55.0246 96.5813 54.8966 96.784C54.7686 96.9867 54.7046 97.2213 54.7046 97.488C54.7046 97.7973 54.7846 98.0587 54.9446 98.272C55.1046 98.4853 55.3499 98.688 55.6806 98.88C56.0219 99.0613 56.4593 99.2693 56.9926 99.504C57.6113 99.7707 58.1339 100.048 58.5606 100.336C58.9873 100.624 59.3179 100.971 59.5526 101.376C59.7873 101.781 59.9046 102.283 59.9046 102.88Z" fill="black"/>
</g>
<defs>
<clipPath id="clip0_87_752">
<rect width="80" height="112" fill="white" transform="translate(0.800049)"/>
</clipPath>
</defs>
</svg>
