<svg viewBox="0 0 76 52" fill="none"
    xmlns="http://www.w3.org/2000/svg">
    <path d="M52.66 35.743C55.4647 35.5379 57.5923 33.8288 57.4956 31.7778C57.3989 29.7269 54.9811 28.0861 52.0797 28.0861H51.8863C48.8882 28.1545 46.567 29.932 46.6638 32.0513C46.7605 33.0767 47.3407 33.9655 48.2112 34.5808C44.9229 39.1612 39.8938 42.5111 32.3502 45.314C27.2244 47.2282 21.9052 47.9119 16.5859 47.4333C12.2339 47.0231 8.84889 45.6558 6.7212 43.3998C3.62638 40.0499 3.33624 36.4266 5.9475 32.8033C7.78505 30.2054 10.6864 28.2912 12.524 27.3341C12.1371 26.4454 11.5569 24.9414 11.2667 23.8475C-2.75669 31.0258 -1.30599 40.7336 2.94939 45.314C6.14092 48.7322 12.6207 50.8515 19.7775 50.8515C21.7117 50.8515 23.646 50.7148 25.5803 50.373C37.9596 48.6639 47.3407 43.4682 52.66 35.743ZM69.6815 27.2658C62.3313 21.1813 51.4994 17.8314 39.1201 17.8314H37.5727C36.7023 16.6009 34.8647 15.7805 32.8338 15.7805H32.6403C29.6422 15.8489 27.3211 17.6263 27.4178 19.7456C27.5145 21.7966 29.9324 23.4373 32.8338 23.4373H33.0272C35.1549 23.369 36.9924 22.4119 37.7661 21.1129H39.507C46.8572 21.1129 53.8205 22.617 60.1069 25.5566C64.9425 27.8127 68.4242 30.7523 70.3585 34.3073C72.0026 37.1786 71.9059 39.9816 70.1651 42.3743C67.4571 45.9977 62.9116 47.9802 56.9153 47.9802C53.0468 47.9802 49.3717 47.1599 47.4375 46.5446C46.3736 47.2282 44.4394 48.3221 43.0854 49.0057C47.244 50.373 51.4994 51.125 55.5614 51.125C64.8458 51.125 71.7125 47.5017 74.3237 43.8783C77.1284 39.9132 76.935 33.0767 69.6815 27.2658ZM20.5512 36.9052C20.6479 38.9561 23.0657 40.5969 25.9671 40.5969H26.1606C29.1587 40.5285 31.4798 38.751 31.3831 36.6317C31.2864 34.5808 28.8685 32.94 25.9671 32.94H25.7737C25.5803 32.94 25.2901 32.94 25.0967 33.0084C21.1315 28.3596 19.4873 23.3006 20.0676 17.8314C20.4545 13.7296 22.3887 10.1746 25.7737 7.23492C28.5784 4.70543 33.9943 3.47487 37.6694 3.4065C47.921 3.26977 52.2731 12.2939 52.5633 15.9172C53.8205 16.1223 55.9482 16.6009 57.3989 16.9427C56.2384 5.86763 46.567 0.125 37.2826 0.125C28.5784 0.125 20.5512 4.5687 17.3597 11.1317C12.9108 19.8824 15.8122 28.2912 21.2282 34.9226C20.7446 35.4011 20.4545 36.1531 20.5512 36.9052Z" fill="currentColor"/>
</svg>
