<?xml version="1.0" encoding="UTF-8" standalone="no"?>
<!DOCTYPE svg PUBLIC "-//W3C//DTD SVG 1.1//EN" "http://www.w3.org/Graphics/SVG/1.1/DTD/svg11.dtd">
<svg xmlns="http://www.w3.org/2000/svg" version="1.1" viewBox="0 0 500 500">
<g stroke-width="2.00" fill="none" stroke-linecap="butt">
<path stroke="#132329" vector-effect="non-scaling-stroke" d="
  M 235.75 458.96
  L 235.75 458.29"
/>
<path stroke="#285566" vector-effect="non-scaling-stroke" d="
  M 441.87 251.80
  Q 443.62 246.81 443.42 240.25
  Q 443.23 233.75 441.93 229.19"
/>
</g>
<path fill="#254652" d="
  M 235.75 458.96
  L 235.75 458.29
  C 246.74 458.60 257.93 459.06 268.93 457.68
  C 299.88 453.81 327.89 445.78 353.68 429.70
  Q 389.01 407.65 414.09 374.19
  A 1.00 1.00 0.0 0 0 413.49 372.61
  Q 412.80 372.47 412.07 372.74
  Q 411.33 373.01 410.59 374.00
  Q 377.23 418.30 325.90 439.70
  C 325.69 439.79 325.43 439.74 325.52 439.46
  A 0.32 0.26 89.6 0 1 325.65 439.30
  L 340.72 431.28
  A 1.00 1.00 0.0 0 0 341.25 430.47
  Q 341.41 428.37 342.98 427.52
  Q 380.33 407.22 404.12 373.21
  C 404.28 372.98 404.49 371.66 403.58 372.58
  Q 398.72 377.49 385.16 389.90
  C 383.09 391.78 384.25 389.30 384.52 389.02
  C 420.95 351.21 440.53 303.90 441.87 251.80
  Q 443.62 246.81 443.42 240.25
  Q 443.23 233.75 441.93 229.19
  C 441.31 225.80 439.99 222.23 440.08 218.76
  C 440.14 216.21 439.25 213.88 439.17 211.67
  C 439.11 209.98 439.17 208.46 438.82 206.78
  Q 434.67 187.23 430.23 175.29
  C 420.51 149.15 403.37 121.45 382.09 102.01
  Q 369.45 90.47 360.18 83.81
  Q 302.53 42.46 230.99 47.00
  Q 226.64 47.27 212.00 50.16
  C 151.26 62.16 99.20 100.45 71.39 155.90
  C 56.05 186.48 50.01 217.34 48.74 251.77
  A 0.35 0.34 70.5 0 1 48.64 251.99
  L 48.44 252.19
  Q 48.33 252.29 48.32 252.05
  C 46.48 224.19 52.85 194.40 62.94 168.68
  A 0.35 0.13 -69.2 0 0 62.94 168.31
  L 62.64 168.20
  A 0.42 0.41 21.0 0 0 62.12 168.43
  Q 55.44 184.76 52.14 198.53
  Q 46.02 224.07 45.08 250.30
  C 45.06 250.84 44.64 252.04 43.93 251.26
  A 0.82 0.81 -67.4 0 1 43.72 250.74
  Q 42.90 210.68 56.76 174.55
  Q 57.20 173.40 56.57 173.37
  A 0.50 0.50 0.0 0 0 56.08 173.67
  Q 52.23 182.32 48.84 191.12
  C 48.68 191.56 48.07 192.30 48.49 190.82
  C 66.10 127.85 109.88 77.24 169.54 51.54
  C 201.69 37.69 235.86 33.47 270.56 36.38
  C 273.54 36.63 275.86 35.03 279.00 35.48
  Q 300.83 38.62 319.56 46.71
  C 354.02 61.58 384.57 81.44 409.48 109.67
  C 436.70 140.50 452.96 177.58 458.33 218.94
  C 466.95 285.43 447.84 349.12 402.20 397.55
  C 363.05 439.10 307.73 463.28 250.58 463.48
  A 0.53 0.51 -15.0 0 1 250.13 463.23
  C 249.56 462.27 257.34 461.68 258.10 461.64
  Q 279.13 460.47 299.52 455.11
  Q 301.80 454.51 299.80 453.76
  A 1.06 1.01 46.5 0 0 299.22 453.73
  Q 267.88 461.20 235.75 458.96
  Z
  M 362.72 427.55
  C 387.11 411.91 406.99 391.83 423.05 367.76
  A 0.80 0.78 -38.1 0 0 423.14 367.06
  Q 422.88 366.27 422.12 367.35
  Q 397.33 402.49 361.96 426.96
  A 0.52 0.51 -11.8 0 0 361.74 427.29
  C 361.61 428.00 362.40 427.75 362.72 427.55
  Z"
/>
<path fill="#174974" d="
  M 303.6661 250.3590
  A 12.94 12.94 0.0 0 1 290.6810 263.2538
  L 208.1015 262.9655
  A 12.94 12.94 0.0 0 1 195.2068 249.9805
  L 195.4939 167.7410
  A 12.94 12.94 0.0 0 1 208.4790 154.8462
  L 291.0585 155.1345
  A 12.94 12.94 0.0 0 1 303.9532 168.1195
  L 303.6661 250.3590
  Z
  M 300.50 162.35
  C 297.59 159.43 295.23 157.71 290.86 157.66
  Q 229.03 157.02 210.49 157.76
  Q 193.80 158.42 198.57 174.78
  A 1.00 1.00 0.0 0 0 199.53 175.50
  L 300.30 175.50
  A 0.99 0.99 0.0 0 0 301.29 174.46
  L 300.79 163.01
  A 1.02 0.99 -69.7 0 0 300.50 162.35
  Z
  M 202.45 259.07
  Q 204.36 260.49 206.75 260.49
  L 287.75 260.50
  Q 290.28 260.50 293.03 260.09
  Q 300.80 258.93 300.84 251.25
  Q 301.02 214.93 300.99 179.09
  A 1.00 1.00 0.0 0 0 299.99 178.09
  L 199.02 178.05
  A 1.00 1.00 0.0 0 0 198.02 179.05
  Q 197.94 214.75 198.05 250.06
  Q 198.06 255.81 202.45 259.07
  Z"
/>
<path fill="#174974" d="
  M 249.54 167.20
  A 4.78 4.78 0.0 0 1 244.76 171.98
  L 209.02 171.98
  A 4.78 4.78 0.0 0 1 204.24 167.20
  L 204.24 166.04
  A 4.78 4.78 0.0 0 1 209.02 161.26
  L 244.76 161.26
  A 4.78 4.78 0.0 0 1 249.54 166.04
  L 249.54 167.20
  Z
  M 247.52 166.33
  A 2.82 2.82 0.0 0 0 244.70 163.51
  L 209.30 163.51
  A 2.82 2.82 0.0 0 0 206.48 166.33
  L 206.48 166.93
  A 2.82 2.82 0.0 0 0 209.30 169.75
  L 244.70 169.75
  A 2.82 2.82 0.0 0 0 247.52 166.93
  L 247.52 166.33
  Z"
/>
<path fill="#174974" d="
  M 267.05 166.55
  A 5.13 5.13 0.0 0 1 261.92 171.68
  A 5.13 5.13 0.0 0 1 256.79 166.55
  A 5.13 5.13 0.0 0 1 261.92 161.42
  A 5.13 5.13 0.0 0 1 267.05 166.55
  Z
  M 264.97 166.67
  A 3.02 3.02 0.0 0 0 261.95 163.65
  A 3.02 3.02 0.0 0 0 258.93 166.67
  A 3.02 3.02 0.0 0 0 261.95 169.69
  A 3.02 3.02 0.0 0 0 264.97 166.67
  Z"
/>
<path fill="#174974" d="
  M 280.63 166.58
  A 5.19 5.19 0.0 0 1 275.44 171.77
  A 5.19 5.19 0.0 0 1 270.25 166.58
  A 5.19 5.19 0.0 0 1 275.44 161.39
  A 5.19 5.19 0.0 0 1 280.63 166.58
  Z
  M 278.40 166.69
  A 2.96 2.96 0.0 0 0 275.44 163.73
  A 2.96 2.96 0.0 0 0 272.48 166.69
  A 2.96 2.96 0.0 0 0 275.44 169.65
  A 2.96 2.96 0.0 0 0 278.40 166.69
  Z"
/>
<path fill="#174974" d="
  M 294.09 166.58
  A 5.16 5.16 0.0 0 1 288.93 171.74
  A 5.16 5.16 0.0 0 1 283.77 166.58
  A 5.16 5.16 0.0 0 1 288.93 161.42
  A 5.16 5.16 0.0 0 1 294.09 166.58
  Z
  M 291.83 166.62
  A 2.87 2.87 0.0 0 0 288.96 163.75
  A 2.87 2.87 0.0 0 0 286.09 166.62
  A 2.87 2.87 0.0 0 0 288.96 169.49
  A 2.87 2.87 0.0 0 0 291.83 166.62
  Z"
/>
<path fill="#254652" d="
  M 233.66 235.78
  C 235.36 236.23 241.99 236.02 241.03 238.93
  A 1.01 1.00 -84.6 0 1 240.23 239.60
  Q 235.01 240.40 229.82 239.47
  A 1.00 1.00 0.0 0 1 229.00 238.49
  L 229.00 222.88
  A 1.00 1.00 0.0 0 0 228.76 222.23
  L 225.01 217.81
  A 1.00 1.00 0.0 0 1 224.97 216.56
  L 228.80 211.46
  A 1.02 0.99 -27.4 0 0 229.00 210.86
  L 229.00 195.28
  A 1.00 0.99 -2.2 0 1 229.92 194.29
  C 232.09 194.10 241.39 192.08 241.22 195.85
  A 1.00 0.99 86.5 0 1 240.39 196.80
  L 233.59 197.91
  A 0.99 0.99 0.0 0 0 232.75 198.89
  L 232.75 212.97
  A 1.03 0.99 64.8 0 1 232.54 213.59
  L 230.26 216.47
  A 1.00 0.99 -51.2 0 0 230.41 217.86
  L 232.30 219.42
  A 0.99 0.99 0.0 0 1 232.67 220.17
  L 232.91 234.83
  A 1.00 0.99 6.9 0 0 233.66 235.78
  Z"
/>
<path fill="#1c4b5d" d="
  M 272.28 216.62
  L 269.96 213.55
  A 0.97 0.94 -65.1 0 1 269.75 212.95
  L 269.74 198.78
  A 1.00 0.99 -86.4 0 0 268.87 197.79
  C 266.85 197.53 260.65 198.29 261.75 194.60
  A 1.01 1.00 -83.9 0 1 262.62 193.89
  Q 267.73 193.43 272.73 194.68
  A 1.00 0.99 -83.4 0 1 273.49 195.65
  L 273.50 211.61
  A 1.02 0.97 26.5 0 0 273.73 212.24
  L 277.18 216.47
  A 1.01 1.00 46.2 0 1 277.16 217.76
  L 273.75 221.66
  A 1.04 0.99 -25.8 0 0 273.50 222.32
  L 273.50 236.75
  Q 273.50 239.38 271.28 239.84
  Q 266.89 240.76 262.51 239.89
  A 1.01 0.99 88.0 0 1 261.74 239.16
  L 261.52 238.32
  A 0.99 0.99 0.0 0 1 262.11 237.15
  Q 265.25 235.88 268.63 236.33
  A 1.01 1.00 -86.3 0 0 269.76 235.33
  L 269.75 220.80
  A 1.04 1.01 -23.5 0 1 270.04 220.09
  L 272.19 217.93
  A 1.00 0.99 -41.3 0 0 272.28 216.62
  Z"
/>
<path fill="#2a6479" d="
  M 441.93 229.19
  Q 443.23 233.75 443.42 240.25
  Q 443.62 246.81 441.87 251.80
  Q 439.97 240.46 441.93 229.19
  Z"
/>
<path fill="#254652" d="
  M 332.11 331.14
  L 330.70 339.68
  A 1.02 1.02 0.0 0 1 329.40 340.50
  L 323.97 338.90
  A 1.02 1.02 0.0 0 1 323.26 337.73
  L 331.84 291.66
  A 1.02 1.02 0.0 0 1 332.73 290.84
  L 339.74 290.06
  A 1.02 1.02 0.0 0 1 340.84 290.82
  L 352.92 338.46
  A 1.02 1.02 0.0 0 1 352.01 339.72
  L 344.90 340.34
  A 1.02 1.02 0.0 0 1 343.81 339.54
  L 341.90 330.47
  A 1.02 1.02 0.0 0 0 340.82 329.66
  L 333.03 330.29
  A 1.02 1.02 0.0 0 0 332.11 331.14
  Z
  M 333.95 321.76
  A 0.39 0.39 0.0 0 0 334.34 322.22
  L 339.49 322.18
  A 0.39 0.39 0.0 0 0 339.87 321.71
  L 337.20 308.45
  A 0.39 0.39 0.0 0 0 336.44 308.46
  L 333.95 321.76
  Z"
/>
<path fill="#254652" d="
  M 123.77 319.76
  L 123.74 337.55
  A 1.00 1.00 0.0 0 1 122.67 338.55
  L 115.91 338.08
  A 1.00 0.99 -87.9 0 1 114.98 337.07
  L 115.59 292.25
  A 1.00 1.00 0.0 0 1 116.46 291.27
  C 120.75 290.71 126.16 290.05 130.19 291.75
  C 141.53 296.50 139.95 306.84 133.60 315.45
  A 1.01 1.00 -39.9 0 0 133.50 316.48
  L 141.14 332.35
  A 1.00 0.99 -30.5 0 1 140.81 333.60
  L 135.17 337.55
  A 1.00 0.99 61.2 0 1 133.68 337.11
  Q 130.07 328.47 126.03 319.74
  Q 125.68 318.98 125.04 318.80
  A 1.00 1.00 0.0 0 0 123.77 319.76
  Z
  M 124.16 307.58
  Q 131.85 308.50 130.70 299.58
  A 1.00 0.99 84.5 0 0 129.65 298.71
  L 124.69 299.04
  A 1.00 0.99 -0.0 0 0 123.76 299.96
  L 123.28 306.51
  A 1.00 1.00 0.0 0 0 124.16 307.58
  Z"
/>
<path fill="#254652" d="
  M 158.30 314.95
  C 157.18 314.30 149.95 310.19 149.70 309.51
  C 145.66 298.58 154.87 287.19 166.15 292.95
  C 168.31 294.06 169.66 295.81 167.47 297.79
  C 165.25 299.79 161.62 297.63 159.24 300.72
  C 153.93 307.60 168.10 312.42 170.86 316.19
  C 175.30 322.25 172.77 331.97 166.91 336.20
  C 160.30 340.97 151.68 337.23 145.57 332.53
  A 1.00 0.99 -61.5 0 1 145.24 331.40
  L 147.32 325.77
  A 1.00 1.00 0.0 0 1 148.85 325.31
  Q 150.84 326.79 152.94 328.12
  C 163.66 334.94 167.60 320.37 158.30 314.95
  Z"
/>
<path fill="#254652" d="
  M 299.87 340.14
  A 0.99 0.99 0.0 0 1 298.90 339.13
  L 299.55 294.46
  A 1.00 1.00 0.0 0 1 300.47 293.47
  L 306.78 292.98
  A 0.99 0.99 0.0 0 1 307.85 294.03
  L 305.66 331.68
  A 1.00 0.99 -85.9 0 0 306.57 332.74
  L 318.20 333.66
  A 1.01 1.00 87.0 0 1 319.11 334.48
  Q 319.60 337.24 318.69 339.88
  A 1.00 1.00 0.0 0 1 317.72 340.55
  L 299.87 340.14
  Z"
/>
<path fill="#254652" d="
  M 249.25 302.72
  L 249.25 315.18
  A 0.72 0.72 0.0 0 0 250.01 315.90
  L 257.73 315.43
  A 0.72 0.72 0.0 0 1 258.49 316.11
  L 258.81 322.99
  A 0.72 0.72 0.0 0 1 258.04 323.74
  L 250.37 323.22
  A 0.72 0.72 0.0 0 0 249.60 323.90
  L 249.05 333.56
  A 0.72 0.72 0.0 0 0 249.81 334.32
  L 262.06 333.72
  A 0.72 0.72 0.0 0 1 262.82 334.50
  L 262.35 340.42
  A 0.72 0.72 0.0 0 1 261.61 341.08
  L 242.92 340.52
  A 0.72 0.72 0.0 0 1 242.22 339.81
  L 241.51 297.21
  A 0.72 0.72 0.0 0 1 242.13 296.48
  L 259.66 294.11
  A 0.72 0.72 0.0 0 1 260.48 294.83
  L 260.44 301.28
  A 0.72 0.72 0.0 0 1 259.72 302.00
  L 249.97 302.00
  A 0.72 0.72 0.0 0 0 249.25 302.72
  Z"
/>
<path fill="#254652" d="
  M 269.38 341.79
  A 1.00 0.99 -83.6 0 1 268.65 340.87
  L 266.94 297.34
  A 1.01 1.00 -9.8 0 1 267.65 296.34
  C 274.92 294.09 286.79 292.78 287.28 304.09
  Q 287.50 309.13 283.85 313.02
  A 1.00 1.00 0.0 0 0 284.13 314.60
  Q 292.14 318.54 293.16 326.98
  C 294.79 340.53 279.59 344.64 269.38 341.79
  Z
  M 275.92 300.47
  A 1.00 1.00 0.0 0 0 274.51 301.44
  L 275.05 309.89
  Q 275.17 311.81 276.67 310.61
  C 281.06 307.11 281.90 303.18 275.92 300.47
  Z
  M 277.79 319.60
  A 1.22 1.22 0.0 0 0 276.13 319.77
  C 275.61 320.37 276.66 331.10 276.79 332.59
  A 1.00 0.99 87.8 0 0 277.77 333.50
  C 281.37 333.55 284.46 331.26 283.53 327.34
  Q 282.54 323.19 277.79 319.60
  Z"
/>
<path fill="#254652" d="
  M 360.55 341.77
  A 1.00 1.00 0.0 0 1 359.83 340.85
  L 358.00 297.26
  A 1.00 1.00 0.0 0 1 358.68 296.27
  C 364.23 294.37 374.90 292.93 377.40 300.39
  Q 379.70 307.24 375.11 313.20
  A 1.00 1.00 0.0 0 0 375.43 314.69
  C 383.15 318.88 388.61 330.90 380.30 337.79
  Q 371.64 344.96 360.55 341.77
  Z
  M 369.68 308.56
  C 374.29 303.17 365.09 298.40 365.98 303.18
  Q 366.33 305.04 366.31 306.93
  C 366.25 312.12 367.60 310.99 369.68 308.56
  Z
  M 369.17 334.06
  Q 371.89 333.03 373.63 330.73
  C 376.62 326.80 373.02 322.11 369.50 320.19
  Q 366.63 318.62 366.88 321.76
  L 367.82 333.21
  A 1.00 1.00 0.0 0 0 369.17 334.06
  Z"
/>
<path fill="#254652" d="
  M 225.24 323.51
  L 227.42 298.75
  A 1.00 0.99 -2.6 0 1 228.25 297.85
  L 235.79 296.61
  A 1.00 1.00 0.0 0 1 236.94 297.75
  L 230.83 338.70
  A 1.01 1.01 0.0 0 1 230.00 339.54
  L 222.57 340.77
  A 0.99 0.99 0.0 0 1 221.46 340.08
  C 220.92 338.36 217.81 324.65 217.08 324.85
  A 0.65 0.64 -88.1 0 0 216.64 325.27
  L 211.32 341.63
  A 1.00 1.00 0.0 0 1 210.29 342.32
  L 203.17 341.75
  A 1.00 1.00 0.0 0 1 202.25 340.81
  L 199.86 296.72
  A 1.01 1.00 -89.8 0 1 200.92 295.66
  L 208.37 296.14
  A 1.00 1.00 0.0 0 1 209.31 297.15
  Q 209.11 311.10 209.39 324.45
  C 209.40 324.99 210.12 325.59 210.31 324.81
  Q 212.07 317.52 214.21 310.33
  A 1.01 1.00 -85.1 0 1 215.05 309.62
  L 220.65 308.92
  A 1.01 1.00 -7.2 0 1 221.77 309.78
  C 221.94 311.07 223.70 324.66 224.99 323.91
  A 0.53 0.51 -14.1 0 0 225.24 323.51
  Z"
/>
<path fill="#000000" d="
  M 202.78 455.10
  C 151.66 443.96 106.09 410.64 77.03 367.50
  Q 68.45 354.76 61.18 341.21
  C 60.79 340.48 61.34 339.91 61.85 340.73
  Q 63.44 343.29 68.26 351.76
  C 97.05 402.40 145.96 439.37 202.87 454.57
  Q 203.05 454.62 203.19 454.74
  Q 203.88 455.34 202.78 455.10
  Z"
/>
<ellipse fill="#2a6479" cx="0.00" cy="0.00" transform="translate(377.11,394.37) rotate(-43.5)" rx="4.45" ry="0.62"/>
<path fill="#000000" d="
  M 125.54 410.01
  Q 123.82 408.70 125.43 408.67
  A 1.00 1.00 0.0 0 1 126.06 408.87
  Q 143.71 422.18 163.31 432.43
  A 1.01 0.99 -79.2 0 1 163.84 433.23
  C 164.18 437.09 162.30 433.52 161.58 433.08
  C 149.31 425.67 136.98 418.72 125.54 410.01
  Z"
/>
<ellipse fill="#4d2649" cx="0.00" cy="0.00" transform="translate(318.38,430.66) rotate(8.6)" rx="1.11" ry="0.61"/>
<path fill="#000000" d="
  M 168.38 436.38
  Q 168.58 436.30 168.77 436.20
  C 172.78 434.24 170.17 439.83 167.78 437.51
  A 0.99 0.98 62.8 0 0 166.95 437.24
  Q 165.16 437.49 164.88 436.20
  A 0.99 0.99 0.0 0 1 166.03 435.01
  Q 166.79 435.14 167.10 435.85
  A 1.00 0.99 67.1 0 0 168.38 436.38
  Z"
/>
<rect fill="#000000" x="-5.56" y="-0.54" transform="translate(177.33,439.33) rotate(19.1)" width="11.12" height="1.08" rx="0.48"/>
<ellipse fill="#000000" cx="0.00" cy="0.00" transform="translate(195.72,445.51) rotate(17.1)" rx="9.52" ry="0.73"/>
<path fill="#4d2649" d="
  M 284.45 453.53
  C 283.56 453.65 283.54 452.93 284.28 452.75
  C 296.63 449.74 307.25 447.67 320.44 442.35
  C 321.48 441.94 322.07 442.69 320.84 443.23
  Q 303.35 450.92 284.45 453.53
  Z"
/>
<ellipse fill="#000000" cx="0.00" cy="0.00" transform="translate(208.67,448.78) rotate(11.0)" rx="2.42" ry="0.36"/>
<ellipse fill="#000000" cx="0.00" cy="0.00" transform="translate(216.31,450.01) rotate(9.4)" rx="3.15" ry="0.86"/>
<path fill="#000000" d="
  M 276.26 453.82
  C 276.85 453.74 280.96 453.55 280.56 454.50
  A 0.64 0.63 -79.2 0 1 279.99 454.89
  C 274.33 455.05 268.62 456.22 263.37 456.28
  Q 251.57 456.43 239.78 456.20
  Q 237.96 456.17 239.53 455.25
  Q 240.11 454.91 240.76 454.95
  Q 258.55 456.06 276.26 453.82
  Z"
/>
<path fill="#000000" d="
  M 235.75 458.29
  L 235.75 458.96
  Q 227.04 458.54 218.44 457.04
  Q 217.86 456.94 218.16 456.70
  A 0.41 0.39 26.1 0 1 218.44 456.61
  C 224.14 456.96 229.89 458.35 235.75 458.29
  Z"
/>
</svg>
