<svg width="100" height="100" viewBox="0 0 100 100" fill="none"
    xmlns="http://www.w3.org/2000/svg">
    <path d="M48.6308 21.9961C41.1188 21.9961 36.884 27.1288 29.873 35.6328C29.871 35.6348 29.8701 35.6376 29.8691 35.6406C29.5171 36.0666 29.5798 36.6959 30.0058 37.0469C30.4318 37.3979 31.0591 37.3372 31.4121 36.9102L31.414 36.9082C32.527 35.5602 34.9805 34.724 37.9785 34.668C42.6425 34.552 49.3455 36.3941 54.1015 41.7441C59.2175 47.4991 66.6295 54.3594 72.8945 54.3594C81.1775 54.3594 88.1189 47.7055 91.4609 36.5605C91.6129 36.0505 91.3379 35.511 90.8359 35.332C90.3339 35.156 89.7791 35.4025 89.5761 35.8945C88.5381 38.4125 86.8132 40.0246 84.4492 40.6816C80.6642 41.7376 76.1157 40.1005 74.0937 38.6055C71.3827 36.5995 69.1797 34.2343 67.0507 31.9473C62.2877 26.8293 57.7888 21.9961 48.6308 21.9961ZM48.6308 23.9961C56.9188 23.9961 60.9368 28.3106 65.5878 33.3086C67.7788 35.6616 70.0423 38.0979 72.9023 40.2129C75.0883 41.8309 80.3003 43.9114 84.9863 42.6074C85.8383 42.3704 86.6294 42.0298 87.3554 41.5918C83.9534 48.4278 78.7855 52.3594 72.8945 52.3594C68.5855 52.3594 62.4417 48.118 55.5957 40.416C50.5057 34.69 43.3929 32.6641 38.2929 32.6641C38.1749 32.6641 38.0574 32.665 37.9414 32.668C36.7544 32.69 35.6409 32.8208 34.6269 33.0508C39.6209 27.1778 43.1588 23.9961 48.6308 23.9961ZM50 25.5C49.724 25.5 49.5 25.724 49.5 26C49.5 26.276 49.724 26.5 50 26.5C55.973 26.5 60.0749 31.0282 64.4179 35.8242C66.3569 37.9632 68.3619 40.1774 70.5429 41.9414C72.5679 43.5804 76.8018 46.0664 80.9238 46.0664C81.4378 46.0664 81.95 46.0274 82.455 45.9434C82.728 45.8984 82.9121 45.6411 82.8671 45.3691C82.8221 45.0981 82.5649 44.904 82.2929 44.957C78.0739 45.65 73.3179 42.9011 71.1699 41.1641C69.0499 39.4491 67.0712 37.2643 65.1582 35.1523C60.8602 30.4063 56.416 25.5 50 25.5ZM46.7793 25.7754C44.5913 26.2014 42.9626 27.091 40.7226 28.584C40.4926 28.737 40.429 29.0483 40.582 29.2773C40.679 29.4223 40.838 29.5 41 29.5C41.096 29.5 41.1913 29.473 41.2753 29.416C43.4073 27.995 44.9467 27.1508 46.9687 26.7578C47.2397 26.7048 47.4182 26.4429 47.3652 26.1719C47.3132 25.9009 47.0533 25.7294 46.7793 25.7754ZM27.4863 45.6406C19.9743 45.6406 15.7414 50.7733 8.73043 59.2773C8.72943 59.2793 8.72752 59.2812 8.72652 59.2832C8.37452 59.7092 8.43529 60.3375 8.86129 60.6895C9.28829 61.0405 9.91849 60.9827 10.2695 60.5547V60.5527C11.4145 59.1667 13.9516 58.3172 17.0566 58.2812C21.6946 58.2202 28.3502 60.0619 32.9492 65.3789C39.9912 73.5209 46.6709 78.0039 51.7539 78.0039C60.0379 78.0039 66.9764 71.3511 70.3164 60.2031C70.4684 59.6931 70.1953 59.1536 69.6933 58.9746C69.1923 58.7966 68.6366 59.0422 68.4336 59.5352C67.3366 62.1952 65.508 63.8688 62.998 64.5098C59.419 65.4268 55.1654 64.0394 52.9824 62.2734C50.5664 60.3194 48.5343 58.1269 46.5703 56.0039C41.6373 50.6749 36.9793 45.6406 27.4863 45.6406ZM27.4902 47.6406C36.1082 47.6406 40.2774 52.1443 45.1054 57.3613C47.1184 59.5363 49.2005 61.7861 51.7285 63.8301C54.3535 65.9541 59.2371 67.5363 63.4961 66.4473C64.4621 66.2013 65.3559 65.8251 66.1679 65.3281C62.7649 72.1081 57.6179 76.0039 51.7539 76.0039C47.2609 76.0039 41.1208 71.7653 34.4648 64.0703C29.4908 58.3193 22.3618 56.2793 17.2578 56.2793C17.1838 56.2793 17.1071 56.2802 17.0351 56.2812C15.7641 56.2953 14.574 56.4307 13.498 56.6777C18.485 50.8157 22.0232 47.6406 27.4902 47.6406ZM28.5 49C28.224 49 28 49.224 28 49.5C28 49.776 28.224 50 28.5 50C34.473 50 38.5749 54.5282 42.9179 59.3242C44.8569 61.4632 46.8619 63.6774 49.0429 65.4414C51.0679 67.0804 55.3018 69.5664 59.4238 69.5664C59.9378 69.5664 60.45 69.5274 60.955 69.4434C61.228 69.3984 61.4121 69.1411 61.3671 68.8691C61.3221 68.5981 61.0669 68.408 60.7929 68.457C56.5769 69.157 51.8179 66.4011 49.6699 64.6641C47.5499 62.9491 45.5712 60.7643 43.6582 58.6523C39.3602 53.9063 34.916 49 28.5 49ZM26.0586 49.1484C23.4826 49.4934 21.7356 50.408 19.2226 52.084C18.9926 52.237 18.929 52.5483 19.082 52.7773C19.179 52.9223 19.338 53 19.5 53C19.596 53 19.6923 52.973 19.7773 52.916C22.1633 51.326 23.8104 50.4596 26.1914 50.1406C26.4654 50.1036 26.6561 49.8511 26.6191 49.5781C26.5821 49.3041 26.3296 49.1034 26.0586 49.1484Z" fill="currentColor"/>
</svg>
